<svg width="137" height="46" viewBox="0 0 137 46" fill="none" xmlns="http://www.w3.org/2000/svg">
<g clip-path="url(#clip0_310_284)">
<path d="M0.0151367 33.5361V0H2.24993L23.2663 21.0164V0H29.9727V33.5361H27.5136L6.72154 12.744V33.5361H0.0151367Z" fill="white"/>
<path d="M36.9257 33.5361V0H39.1605L53.6927 16.5448L68.2492 0H70.4839V33.5361H63.7775L63.7553 14.0857L53.6947 25.2637L43.6341 14.0857V33.5361H36.9277H36.9257Z" fill="white"/>
<path d="M104.533 0V6.25985H93.3552V33.5361H86.6488V6.25985H75.4708V0H104.535H104.533Z" fill="white"/>
<path d="M112.682 28.7169C109.47 25.5203 107.865 21.5155 107.865 16.7003C107.879 11.9903 109.49 8.0299 112.694 4.81713C115.899 1.60638 119.872 0 124.61 0C129.348 0 133.501 1.49121 136.93 4.47161L132.458 9.36755C130.177 7.57931 127.562 6.68418 124.61 6.68418C121.599 6.69832 119.173 7.63791 117.334 9.50091C115.493 11.3639 114.574 13.7482 114.574 16.6559C114.588 19.7717 115.519 22.2449 117.368 24.0776C119.217 25.9103 121.646 26.8276 124.656 26.8276C127.667 26.8276 130.268 25.9406 132.458 24.1665L136.93 29.0624C133.517 32.0428 129.411 33.534 124.61 33.534C119.87 33.5199 115.895 31.9135 112.682 28.7169Z" fill="white"/>
<path d="M0 44.4221V38.8695H0.369772L3.84926 42.349V38.8695H4.9606V44.4221H4.55243L1.10931 40.979V44.4221H0Z" fill="white"/>
<path d="M6.09818 41.1647C6.56696 40.8677 7.11051 40.7202 7.7268 40.7202C8.17133 40.7202 8.52292 40.8435 8.78155 41.09C9.04019 41.3365 9.16951 41.7063 9.16951 42.2013V44.422H8.13294V44.1249C7.83187 44.323 7.56111 44.422 7.31863 44.422C6.8256 44.422 6.45583 44.3169 6.2073 44.1068C5.96078 43.8966 5.83752 43.6077 5.83752 43.2359C5.83752 42.8903 5.95472 42.5812 6.18709 42.3104C6.41946 42.0397 6.79731 41.9023 7.31863 41.9023C7.55706 41.9023 7.82985 41.977 8.13294 42.1245V42.0134C8.1289 41.7426 7.93088 41.5931 7.5409 41.5689C7.09636 41.5689 6.75084 41.6436 6.50433 41.7911L6.09616 41.1627L6.09818 41.1647ZM8.13496 43.3127V42.8944C8.03595 42.7045 7.80156 42.6095 7.43179 42.6095C6.98725 42.658 6.75286 42.8318 6.72861 43.1288C6.75286 43.4218 6.98725 43.5814 7.43179 43.6056C7.80156 43.6056 8.03595 43.5087 8.13496 43.3127Z" fill="white"/>
<path d="M11.768 44.422C11.3478 44.422 11.0144 44.3048 10.7678 44.0704C10.5213 43.836 10.3981 43.5329 10.3981 43.1631V41.5608H9.84241V40.7243H10.3981V39.72L11.4387 39.6089V40.7222H11.9944V41.5588H11.4387V43.0136C11.4387 43.2116 11.4791 43.349 11.5619 43.4299C11.6448 43.5107 11.7519 43.5511 11.8812 43.5511C11.9216 43.5511 12.0125 43.5349 12.158 43.5026L12.3763 44.2462C12.1984 44.3614 11.9944 44.42 11.766 44.42L11.768 44.422Z" fill="white"/>
<path d="M13.1199 39.4593C13.2189 39.3603 13.3522 39.3098 13.5199 39.3098C13.6978 39.3098 13.8352 39.3603 13.9342 39.4593C14.0332 39.5604 14.0817 39.6836 14.0817 39.8311C14.0817 39.9786 14.0332 40.1019 13.9342 40.2009C13.8352 40.2999 13.6998 40.3484 13.526 40.3484C13.3522 40.3484 13.2169 40.2999 13.1178 40.2009C13.0188 40.1019 12.9703 39.9786 12.9703 39.8311C12.9703 39.6836 13.0188 39.5583 13.1178 39.4593H13.1199ZM14.0453 44.422V40.7162H13.0087V44.422H14.0453Z" fill="white"/>
<path d="M15.2738 43.9168C14.9141 43.5551 14.7343 43.1066 14.7343 42.5711C14.7343 42.0356 14.9141 41.585 15.2738 41.2233C15.6334 40.8637 16.084 40.6838 16.6215 40.6838C17.159 40.6838 17.6096 40.8637 17.9693 41.2233C18.3289 41.583 18.5088 42.0336 18.5088 42.5711C18.5088 43.1086 18.3289 43.5592 17.9693 43.9188C17.6096 44.2785 17.159 44.4604 16.6215 44.4604C16.084 44.4604 15.6334 44.2805 15.2738 43.9188V43.9168ZM16.6175 43.5632C16.8983 43.5632 17.1267 43.4682 17.3024 43.2803C17.4782 43.0924 17.5651 42.856 17.5651 42.5751C17.5651 42.2943 17.4782 42.0579 17.3024 41.8679C17.1267 41.678 16.8983 41.583 16.6134 41.583C16.3285 41.583 16.1083 41.678 15.9325 41.8679C15.7567 42.0579 15.6698 42.2943 15.6698 42.5751C15.6698 42.856 15.7567 43.0924 15.9325 43.2803C16.1083 43.4682 16.3366 43.5632 16.6175 43.5632Z" fill="white"/>
<path d="M20.2506 42.068V44.422H19.214V40.8273L20.2506 40.7162V41.0536C20.4991 40.8314 20.7961 40.7202 21.1396 40.7202C21.6084 40.7202 21.9661 40.8617 22.2126 41.1466C22.4591 41.4295 22.5823 41.7568 22.5823 42.1266V44.422H21.5458V42.3852C21.5458 42.1387 21.4831 41.9467 21.3599 41.8114C21.2366 41.676 21.0507 41.6032 20.8002 41.5972C20.586 41.6113 20.4021 41.7689 20.2485 42.068H20.2506Z" fill="white"/>
<path d="M23.5219 41.1647C23.9907 40.8677 24.5342 40.7202 25.1505 40.7202C25.595 40.7202 25.9466 40.8435 26.2053 41.09C26.4639 41.3365 26.5932 41.7063 26.5932 42.2013V44.422H25.5566V44.1249C25.2556 44.323 24.9848 44.422 24.7423 44.422C24.2493 44.422 23.8795 44.3169 23.631 44.1068C23.3845 43.8966 23.2612 43.6077 23.2612 43.2359C23.2612 42.8903 23.3784 42.5812 23.6108 42.3104C23.8432 42.0397 24.221 41.9023 24.7423 41.9023C24.9808 41.9023 25.2536 41.977 25.5566 42.1245V42.0134C25.5526 41.7426 25.3546 41.5931 24.9646 41.5689C24.5201 41.5689 24.1745 41.6436 23.928 41.7911L23.5199 41.1627L23.5219 41.1647ZM25.5587 43.3127V42.8944C25.4597 42.7045 25.2253 42.6095 24.8555 42.6095C24.411 42.658 24.1766 42.8318 24.1523 43.1288C24.1766 43.4218 24.411 43.5814 24.8555 43.6056C25.2253 43.6056 25.4597 43.5087 25.5587 43.3127Z" fill="white"/>
<path d="M27.5208 44.422V38.8694H28.5573V44.422H27.5208Z" fill="white"/>
<path d="M32.3197 44.422V38.8694H32.6895L35.096 41.6093L37.5066 38.8694H37.8764V44.422H36.765L36.761 41.2012L35.096 43.052L33.431 41.2012V44.422H32.3197Z" fill="white"/>
<path d="M39.0079 39.4593C39.1069 39.3603 39.2403 39.3098 39.408 39.3098C39.5858 39.3098 39.7232 39.3603 39.8222 39.4593C39.9212 39.5604 39.9697 39.6836 39.9697 39.8311C39.9697 39.9786 39.9212 40.1019 39.8222 40.2009C39.7232 40.2999 39.5878 40.3484 39.4141 40.3484C39.2403 40.3484 39.1049 40.2999 39.0059 40.2009C38.9069 40.1019 38.8584 39.9786 38.8584 39.8311C38.8584 39.6836 38.9069 39.5583 39.0059 39.4593H39.0079ZM39.9334 44.422V40.7162H38.8968V44.422H39.9334Z" fill="white"/>
<path d="M41.2042 43.9593C40.8345 43.6501 40.6486 43.25 40.6486 42.755V42.3852C40.6486 41.8922 40.8345 41.4901 41.2042 41.1829C41.574 40.8738 42.0084 40.7202 42.5035 40.7202C43.0955 40.7202 43.5885 40.9304 43.9805 41.3486L43.241 41.9043C43.0187 41.682 42.7722 41.5709 42.5015 41.5709C42.2549 41.5709 42.0387 41.6699 41.8528 41.8679C41.6669 42.0659 41.576 42.3003 41.576 42.5711C41.576 42.8419 41.6629 43.0762 41.8347 43.2743C42.0064 43.4723 42.2287 43.5713 42.5015 43.5713C42.7742 43.5713 43.0208 43.4602 43.241 43.2379L43.9805 43.7936C43.5865 44.2138 43.0915 44.422 42.4994 44.422C42.0064 44.422 41.574 44.2684 41.2042 43.9593Z" fill="white"/>
<path d="M45.6759 41.1264C45.9406 40.8556 46.2618 40.7182 46.6417 40.7182C46.7629 40.7182 46.8781 40.7283 46.9852 40.7485L46.8215 41.7709C46.7003 41.6618 46.5286 41.6053 46.3043 41.5972C46.0517 41.6154 45.8436 41.7972 45.6759 42.1448V44.422H44.6393V40.8273L45.6759 40.7162V41.1264Z" fill="white"/>
<path d="M47.9935 43.9168C47.6338 43.5551 47.454 43.1066 47.454 42.5711C47.454 42.0356 47.6338 41.585 47.9935 41.2233C48.3532 40.8637 48.8037 40.6838 49.3412 40.6838C49.8787 40.6838 50.3293 40.8637 50.689 41.2233C51.0486 41.583 51.2285 42.0336 51.2285 42.5711C51.2285 43.1086 51.0486 43.5592 50.689 43.9188C50.3293 44.2785 49.8787 44.4604 49.3412 44.4604C48.8037 44.4604 48.3532 44.2805 47.9935 43.9188V43.9168ZM49.3372 43.5632C49.6181 43.5632 49.8464 43.4682 50.0222 43.2803C50.198 43.0924 50.2849 42.856 50.2849 42.5751C50.2849 42.2943 50.198 42.0579 50.0222 41.8679C49.8464 41.678 49.6181 41.583 49.3331 41.583C49.0482 41.583 48.828 41.678 48.6522 41.8679C48.4764 42.0579 48.3895 42.2943 48.3895 42.5751C48.3895 42.856 48.4764 43.0924 48.6522 43.2803C48.828 43.4682 49.0563 43.5632 49.3372 43.5632Z" fill="white"/>
<path d="M54.023 40.8233C54.215 40.9081 54.3948 41.0314 54.5626 41.1971L53.9847 41.8477C53.817 41.6477 53.6068 41.5487 53.3562 41.5487C53.1057 41.5487 52.94 41.5951 52.8572 41.6881C52.7723 41.781 52.7723 41.8639 52.8572 41.9407C52.942 42.0154 53.1077 42.0781 53.3562 42.1286C53.724 42.1629 54.0251 42.268 54.2595 42.4438C54.4939 42.6196 54.611 42.9247 54.611 43.3591C54.611 43.7087 54.4736 43.9815 54.1968 44.1734C53.92 44.3654 53.5987 44.4624 53.231 44.4624C52.8632 44.4624 52.5884 44.4119 52.356 44.3129C52.1237 44.2138 51.9216 44.0785 51.7539 43.9108L52.3278 43.2621C52.4955 43.4622 52.7561 43.5774 53.1097 43.6097C53.3926 43.6097 53.5765 43.5632 53.6593 43.4703C53.7422 43.3773 53.7543 43.2844 53.6957 43.1934C53.6371 43.1005 53.4431 43.0379 53.1097 43.0055C52.8087 42.9712 52.5318 42.8782 52.2833 42.7287C52.0327 42.5772 51.9075 42.2943 51.9075 41.878C51.9075 41.4961 52.0509 41.2031 52.3358 41.0031C52.6207 40.801 52.9137 40.702 53.2148 40.702C53.5623 40.702 53.8331 40.7445 54.0251 40.8273L54.023 40.8233Z" fill="white"/>
<path d="M55.694 43.9168C55.3344 43.5551 55.1545 43.1066 55.1545 42.5711C55.1545 42.0356 55.3344 41.585 55.694 41.2233C56.0537 40.8637 56.5043 40.6838 57.0418 40.6838C57.5793 40.6838 58.0299 40.8637 58.3895 41.2233C58.7492 41.583 58.929 42.0336 58.929 42.5711C58.929 43.1086 58.7492 43.5592 58.3895 43.9188C58.0299 44.2785 57.5793 44.4604 57.0418 44.4604C56.5043 44.4604 56.0537 44.2805 55.694 43.9188V43.9168ZM57.0378 43.5632C57.3186 43.5632 57.5469 43.4682 57.7227 43.2803C57.8985 43.0924 57.9854 42.856 57.9854 42.5751C57.9854 42.2943 57.8985 42.0579 57.7227 41.8679C57.5469 41.678 57.3186 41.583 57.0337 41.583C56.7488 41.583 56.5286 41.678 56.3528 41.8679C56.177 42.0579 56.0901 42.2943 56.0901 42.5751C56.0901 42.856 56.177 43.0924 56.3528 43.2803C56.5286 43.4682 56.7569 43.5632 57.0378 43.5632Z" fill="white"/>
<path d="M59.806 44.422V41.4598H59.2504V40.6232H59.806V40.1261C59.806 39.7564 59.9293 39.4533 60.1758 39.2189C60.4223 38.9845 60.7557 38.8673 61.176 38.8673C61.6205 38.8673 61.9661 38.9906 62.2126 39.2371L61.661 39.8513C61.5923 39.7746 61.469 39.7362 61.2912 39.7362C61.1598 39.7362 61.0527 39.7766 60.9719 39.8574C60.8891 39.9382 60.8487 40.0756 60.8487 40.2737V40.6212H61.4043V41.4577H60.8487V44.4199H59.8081L59.806 44.422Z" fill="white"/>
<path d="M64.1644 44.422C63.7441 44.422 63.4107 44.3048 63.1642 44.0704C62.9177 43.836 62.7944 43.5329 62.7944 43.1631V41.5608H62.2388V40.7243H62.7944V39.72L63.8351 39.6089V40.7222H64.3907V41.5588H63.8351V43.0136C63.8351 43.2116 63.8755 43.349 63.9583 43.4299C64.0412 43.5107 64.1482 43.5511 64.2776 43.5511C64.318 43.5511 64.4089 43.5349 64.5544 43.5026L64.7726 44.2462C64.5948 44.3614 64.3907 44.42 64.1624 44.42L64.1644 44.422Z" fill="white"/>
<path d="M72.6126 38.8694V39.906H70.7618V44.422H69.6504V39.906H67.7996V38.8694H72.6126Z" fill="white"/>
<path d="M73.1562 42.5711C73.1562 42.0276 73.3279 41.585 73.6735 41.2375C74.019 40.892 74.4635 40.7202 75.0071 40.7202C75.5506 40.7202 75.981 40.892 76.3023 41.2375C76.6236 41.583 76.7832 42.0276 76.7832 42.5711V42.9409H74.2291C74.2534 43.1389 74.3403 43.2925 74.4878 43.4036C74.6353 43.5147 74.8091 43.5693 75.0051 43.5693C75.3506 43.5693 75.6597 43.4703 75.9305 43.2722L76.5225 43.8643C76.2518 44.2341 75.7446 44.42 75.0051 44.42C74.4615 44.42 74.017 44.2482 73.6715 43.9027C73.3259 43.5572 73.1542 43.1126 73.1542 42.5691L73.1562 42.5711ZM75.5264 41.7386C75.3789 41.6275 75.2051 41.5729 75.0091 41.5729C74.8131 41.5729 74.6393 41.6275 74.4918 41.7386C74.3443 41.8497 74.2695 42.0033 74.2695 42.2013H75.7507C75.7507 42.0033 75.6759 41.8497 75.5284 41.7386H75.5264Z" fill="white"/>
<path d="M77.9652 43.9593C77.5954 43.6501 77.4095 43.25 77.4095 42.755V42.3852C77.4095 41.8922 77.5954 41.4901 77.9652 41.1829C78.335 40.8738 78.7694 40.7202 79.2645 40.7202C79.8565 40.7202 80.3495 40.9304 80.7415 41.3486L80 41.9043C79.7777 41.682 79.5312 41.5709 79.2604 41.5709C79.0139 41.5709 78.7977 41.6699 78.6118 41.8679C78.4259 42.0659 78.335 42.3003 78.335 42.5711C78.335 42.8419 78.4219 43.0762 78.5936 43.2743C78.7654 43.4723 78.9876 43.5713 79.2604 43.5713C79.5332 43.5713 79.7777 43.4602 80 43.2379L80.7415 43.7936C80.3475 44.2138 79.8525 44.422 79.2604 44.422C78.7674 44.422 78.335 44.2684 77.9652 43.9593Z" fill="white"/>
<path d="M82.5177 41.9185V44.422H81.4811V38.8694H82.5177V41.0537C82.7662 40.8314 83.0632 40.7203 83.4067 40.7203C83.8755 40.7203 84.2331 40.8617 84.4797 41.1466C84.7262 41.4295 84.8494 41.7568 84.8494 42.1266V44.422H83.8129V42.3852C83.8129 42.1387 83.7522 41.9468 83.627 41.8114C83.5037 41.676 83.3178 41.6033 83.0673 41.5972C82.8531 41.6114 82.6692 41.7184 82.5156 41.9185H82.5177Z" fill="white"/>
<path d="M86.5913 42.068V44.422H85.5547V40.8273L86.5913 40.7162V41.0536C86.8398 40.8314 87.1368 40.7202 87.4803 40.7202C87.9491 40.7202 88.3068 40.8617 88.5533 41.1466C88.7998 41.4295 88.923 41.7568 88.923 42.1266V44.422H87.8865V42.3852C87.8865 42.1387 87.8259 41.9467 87.7006 41.8114C87.5753 41.676 87.3914 41.6032 87.1409 41.5972C86.9267 41.6113 86.7428 41.7689 86.5892 42.068H86.5913Z" fill="white"/>
<path d="M90.1192 43.9168C89.7595 43.5551 89.5776 43.1066 89.5776 42.5711C89.5776 42.0356 89.7575 41.585 90.1192 41.2233C90.4788 40.8637 90.9294 40.6838 91.4669 40.6838C92.0044 40.6838 92.453 40.8637 92.8147 41.2233C93.1743 41.583 93.3562 42.0336 93.3562 42.5711C93.3562 43.1086 93.1763 43.5592 92.8147 43.9188C92.455 44.2785 92.0044 44.4604 91.4669 44.4604C90.9294 44.4604 90.4788 44.2805 90.1192 43.9188V43.9168ZM91.4629 43.5632C91.7437 43.5632 91.9721 43.4682 92.1479 43.2803C92.3236 43.0924 92.4105 42.856 92.4105 42.5751C92.4105 42.2943 92.3236 42.0579 92.1479 41.8679C91.9721 41.678 91.7437 41.583 91.4588 41.583C91.1739 41.583 90.9537 41.678 90.7779 41.8679C90.6021 42.0579 90.5152 42.2943 90.5152 42.5751C90.5152 42.856 90.6021 43.0924 90.7779 43.2803C90.9537 43.4682 91.182 43.5632 91.4629 43.5632Z" fill="white"/>
<path d="M94.0574 44.422V38.8694H95.0939V44.422H94.0574Z" fill="white"/>
<path d="M96.5043 43.9168C96.1446 43.5551 95.9628 43.1066 95.9628 42.5711C95.9628 42.0356 96.1426 41.585 96.5043 41.2233C96.864 40.8637 97.3146 40.6838 97.852 40.6838C98.3895 40.6838 98.8381 40.8637 99.1998 41.2233C99.5595 41.583 99.7413 42.0336 99.7413 42.5711C99.7413 43.1086 99.5615 43.5592 99.1998 43.9188C98.8401 44.2785 98.3895 44.4604 97.852 44.4604C97.3146 44.4604 96.864 44.2805 96.5043 43.9188V43.9168ZM97.848 43.5632C98.1289 43.5632 98.3572 43.4682 98.533 43.2803C98.7088 43.0924 98.7957 42.856 98.7957 42.5751C98.7957 42.2943 98.7088 42.0579 98.533 41.8679C98.3572 41.678 98.1289 41.583 97.844 41.583C97.559 41.583 97.3388 41.678 97.163 41.8679C96.9872 42.0579 96.9003 42.2943 96.9003 42.5751C96.9003 42.856 96.9872 43.0924 97.163 43.2803C97.3388 43.4682 97.5671 43.5632 97.848 43.5632Z" fill="white"/>
<path d="M103.938 40.8314V44.127C103.938 44.6443 103.785 45.0787 103.475 45.4263C103.166 45.7738 102.778 45.9577 102.31 45.9779L102.087 46.0001C101.372 45.986 100.816 45.7799 100.422 45.3859L100.903 44.8302C101.174 45.0282 101.503 45.1393 101.891 45.1636C102.285 45.1636 102.554 45.0706 102.694 44.8868C102.833 44.7029 102.902 44.4988 102.902 44.2765V44.0906C102.625 44.3129 102.304 44.424 101.94 44.424C101.372 44.424 100.946 44.2584 100.663 43.925C100.378 43.5916 100.236 43.141 100.236 42.5732C100.236 42.0054 100.39 41.5871 100.699 41.2396C101.008 40.894 101.445 40.7223 102.013 40.7223C102.433 40.7465 102.728 40.8597 102.902 41.0597V40.7223L103.938 40.8334V40.8314ZM102.902 42.9045V42.3044C102.853 41.8902 102.592 41.6477 102.124 41.575C101.507 41.5972 101.174 41.9043 101.123 42.4964C101.148 43.1874 101.481 43.5451 102.124 43.5693C102.592 43.4946 102.851 43.2723 102.902 42.9025V42.9045Z" fill="white"/>
<path d="M104.789 39.4593C104.888 39.3603 105.021 39.3098 105.189 39.3098C105.367 39.3098 105.504 39.3603 105.603 39.4593C105.702 39.5604 105.751 39.6836 105.751 39.8311C105.751 39.9786 105.702 40.1019 105.603 40.2009C105.504 40.2999 105.369 40.3484 105.195 40.3484C105.021 40.3484 104.886 40.2999 104.787 40.2009C104.688 40.1019 104.639 39.9786 104.639 39.8311C104.639 39.6836 104.688 39.5583 104.787 39.4593H104.789ZM105.714 44.422V40.7162H104.678V44.422H105.714Z" fill="white"/>
<path d="M106.421 42.5711C106.421 42.0276 106.593 41.585 106.939 41.2375C107.284 40.892 107.729 40.7202 108.272 40.7202C108.816 40.7202 109.246 40.892 109.568 41.2375C109.889 41.583 110.048 42.0276 110.048 42.5711V42.9409H107.494C107.519 43.1389 107.606 43.2925 107.753 43.4036C107.901 43.5147 108.074 43.5693 108.27 43.5693C108.616 43.5693 108.925 43.4703 109.196 43.2722L109.788 43.8643C109.517 44.2341 109.01 44.42 108.27 44.42C107.727 44.42 107.282 44.2482 106.937 43.9027C106.591 43.5572 106.419 43.1126 106.419 42.5691L106.421 42.5711ZM108.792 41.7386C108.644 41.6275 108.47 41.5729 108.274 41.5729C108.078 41.5729 107.905 41.6275 107.757 41.7386C107.61 41.8497 107.535 42.0033 107.535 42.2013H109.016C109.016 42.0033 108.941 41.8497 108.794 41.7386H108.792Z" fill="white"/>
<path d="M112.956 40.8233C113.148 40.9081 113.328 41.0314 113.498 41.1971L112.92 41.8477C112.752 41.6477 112.542 41.5487 112.291 41.5487C112.041 41.5487 111.875 41.5951 111.792 41.6881C111.707 41.781 111.707 41.8639 111.792 41.9407C111.877 42.0174 112.043 42.0781 112.291 42.1286C112.659 42.1629 112.96 42.268 113.195 42.4438C113.429 42.6196 113.546 42.9247 113.546 43.3591C113.546 43.7087 113.409 43.9815 113.132 44.1734C112.855 44.3654 112.534 44.4624 112.166 44.4624C111.798 44.4624 111.523 44.4119 111.291 44.3129C111.059 44.2138 110.857 44.0785 110.689 43.9108L111.263 43.2621C111.431 43.4622 111.691 43.5774 112.045 43.6097C112.33 43.6097 112.512 43.5632 112.594 43.4703C112.677 43.3773 112.689 43.2844 112.631 43.1934C112.572 43.1025 112.378 43.0379 112.045 43.0055C111.744 42.9712 111.467 42.8782 111.218 42.7287C110.968 42.5772 110.843 42.2943 110.843 41.878C110.843 41.4961 110.986 41.2031 111.271 41.0031C111.556 40.801 111.849 40.702 112.15 40.702C112.497 40.702 112.768 40.7445 112.96 40.8273L112.956 40.8233Z" fill="white"/>
<path d="M117.501 43.6238C116.969 43.0944 116.702 42.4317 116.702 41.6335C116.704 40.8536 116.971 40.1969 117.503 39.6654C118.034 39.134 118.691 38.8673 119.477 38.8673C120.263 38.8673 120.95 39.1138 121.515 39.6069L120.776 40.4171C120.398 40.1201 119.966 39.9726 119.477 39.9726C118.978 39.9746 118.576 40.1302 118.272 40.4393C117.967 40.7485 117.816 41.1425 117.816 41.6234C117.818 42.1387 117.973 42.5489 118.278 42.852C118.584 43.155 118.988 43.3066 119.485 43.3066C119.982 43.3066 120.414 43.1591 120.776 42.8661L121.515 43.6764C120.95 44.1694 120.271 44.4159 119.477 44.4159C118.693 44.4139 118.034 44.1472 117.503 43.6178L117.501 43.6238Z" fill="white"/>
<path d="M122.698 41.1647C123.166 40.8677 123.71 40.7202 124.326 40.7202C124.771 40.7202 125.122 40.8435 125.381 41.09C125.64 41.3365 125.769 41.7063 125.769 42.2013V44.422H124.732V44.1249C124.431 44.323 124.16 44.422 123.918 44.422C123.425 44.422 123.055 44.3169 122.807 44.1068C122.56 43.8966 122.437 43.6077 122.437 43.2359C122.437 42.8903 122.554 42.5812 122.786 42.3104C123.019 42.0397 123.397 41.9023 123.918 41.9023C124.156 41.9023 124.429 41.977 124.732 42.1245V42.0134C124.728 41.7426 124.53 41.5931 124.14 41.5689C123.696 41.5689 123.35 41.6436 123.104 41.7911L122.696 41.1627L122.698 41.1647ZM124.734 43.3127V42.8944C124.635 42.7045 124.401 42.6095 124.031 42.6095C123.587 42.658 123.352 42.8318 123.328 43.1288C123.352 43.4218 123.587 43.5814 124.031 43.6056C124.401 43.6056 124.635 43.5087 124.734 43.3127Z" fill="white"/>
<path d="M127.717 42.0518V44.422H126.68V40.8273L127.717 40.7162V41.0455C127.949 40.8273 128.244 40.7202 128.606 40.7202C129.075 40.7202 129.432 40.8617 129.679 41.1466C129.95 40.8637 130.358 40.7202 130.901 40.7202C131.37 40.7202 131.728 40.8617 131.974 41.1466C132.221 41.4295 132.344 41.7568 132.344 42.1266V44.422H131.307V42.3852C131.307 42.1387 131.253 41.9467 131.142 41.8114C131.031 41.676 130.851 41.6032 130.602 41.5972C130.398 41.6113 130.22 41.7487 130.069 42.0053C130.057 42.0821 130.051 42.1589 130.051 42.2377V44.422H129.014V42.3852C129.014 42.1387 128.959 41.9467 128.848 41.8114C128.737 41.676 128.557 41.6032 128.307 41.5972C128.08 41.6113 127.882 41.7629 127.719 42.0518H127.717Z" fill="white"/>
<path d="M133.243 45.9779V40.8273L134.28 40.7162V41.0132C134.556 40.8152 134.827 40.7162 135.094 40.7162C135.662 40.7162 136.112 40.9021 136.446 41.2719C136.779 41.6416 136.945 42.074 136.945 42.5671C136.945 43.0601 136.779 43.4925 136.446 43.8623C136.112 44.232 135.662 44.4179 135.094 44.4179C134.724 44.3937 134.451 44.2927 134.28 44.1189V45.9819L133.243 45.9779ZM134.28 42.2357V42.8358C134.328 43.25 134.589 43.4925 135.058 43.5652C135.65 43.5188 135.983 43.2116 136.058 42.6439C136.034 41.9528 135.7 41.5952 135.058 41.5709C134.589 41.6457 134.33 41.8679 134.28 42.2377V42.2357Z" fill="white"/>
</g>
<defs>
<clipPath id="clip0_310_284">
<rect width="136.945" height="46" fill="white"/>
</clipPath>
</defs>
</svg>
