<?xml version="1.0" encoding="utf-8"?>
<!-- Generator: Adobe Illustrator 26.5.0, SVG Export Plug-In . SVG Version: 6.00 Build 0)  -->
<svg version="1.1" id="Layer_1" xmlns="http://www.w3.org/2000/svg" xmlns:xlink="http://www.w3.org/1999/xlink" x="0px" y="0px"
	 viewBox="0 0 106.6 110.6" style="enable-background:new 0 0 106.6 110.6;" xml:space="preserve">
<style type="text/css">
	.st0{fill:none;stroke:#009FFF;stroke-width:2;stroke-linecap:round;}
</style>
<path class="st0" d="M1.5,76.5c8.6-19.9,21-39.4,42.8-46.5c11.6-3.8,25.7,0,24.3,14.5c-0.9,9.9-7.8,24.9-19.4,24.8
	c-12.9,0,8.9-20,11.6-21.7c12.7-8,25.1-11,39.8-12.5c5.5-0.6,2.7-2.3-0.8-3.3c-3.2-1-6.5-1.6-9.8-1.8c-1,0,5.2,1.3,6.1,1.5
	c4.2,0.7,9,1.6,6.9,6.9c-0.3,0.8-4.1,8.4-5.3,8.2c-0.7-0.1-1.1-6.1-1.4-6.9c-1.6-5.3-3.9-7.7-9-9.4"/>
</svg>
