<?xml version="1.0" encoding="utf-8"?>
<!-- Generator: Adobe Illustrator 24.3.0, SVG Export Plug-In . SVG Version: 6.00 Build 0)  -->
<svg version="1.1" id="Layer_1" xmlns:svgjs="http://svgjs.com/svgjs"
	 xmlns="http://www.w3.org/2000/svg" xmlns:xlink="http://www.w3.org/1999/xlink" x="0px" y="0px" viewBox="0 0 512 512"
	 style="enable-background:new 0 0 512 512;" xml:space="preserve">
<style type="text/css">
	.st0{fill:#FC573B;}
</style>
<g>
	<g>
		<g>
			<path class="st0" d="M336.3,276.7l51.2,10.2c0.5,25.1,21.3,45,46.4,44.5c25.1-0.5,45-21.3,44.5-46.4c-0.5-25.1-21.3-45-46.4-44.5
				c-17.6,0.4-33.5,10.9-40.6,27L338.9,257c-0.1-19.2-7.5-37.7-20.9-51.5l68-96.1c28.7,13.6,63,1.4,76.6-27.2s1.4-63-27.2-76.6
				s-63-1.4-76.6,27.2c-10.4,21.9-6,48,11.1,65.2l-67.3,95.1c-31-18.6-70.8-12.3-94.6,14.8l-88.4-68.7c11.6-22.3,2.9-49.8-19.4-61.5
				c-22.3-11.6-49.8-2.9-61.5,19.4s-2.9,49.8,19.4,61.5c15.7,8.2,34.7,6.5,48.7-4.3l90.1,70c-15,30.6-7.3,67.4,18.5,89.6l-54.8,77.4
				c-29-17.6-66.8-8.4-84.3,20.6c-17.6,29-8.4,66.8,20.6,84.3c29,17.6,66.8,8.4,84.3-20.6c13.7-22.5,11.4-51.3-5.5-71.4l56.2-79.5
				c19.2,9.1,41.5,9.6,61.1,1.4l66.7,98.6c-19.6,20.7-18.7,53.5,2,73.1c20.7,19.6,53.5,18.7,73.1-2c19.6-20.7,18.7-53.5-2-73.1
				c-15.3-14.5-37.8-18.2-57-9.5l-65.8-97.2C322.9,306.1,332.1,292.3,336.3,276.7z"/>
		</g>
	</g>
</g>
</svg>
