<?xml version="1.0" encoding="utf-8"?>
<!-- Generator: Adobe Illustrator 24.3.0, SVG Export Plug-In . SVG Version: 6.00 Build 0)  -->
<svg version="1.1" id="Layer_1" xmlns="http://www.w3.org/2000/svg" xmlns:xlink="http://www.w3.org/1999/xlink" x="0px" y="0px"
	 viewBox="0 0 18 18" style="enable-background:new 0 0 18 18;" xml:space="preserve">
<style type="text/css">
	.st0{fill:#E45136;}
</style>
<path class="st0" d="M2.2,16.8L2.2,16.8c-0.3-0.3-0.3-0.7-0.1-1L14.8,1.3C15,1,15.5,1,15.8,1.2l0,0c0.3,0.3,0.3,0.7,0.1,1L3.2,16.7
	C3,17,2.5,17,2.2,16.8z"/>
<path class="st0" d="M15.8,16.8L15.8,16.8c0.3-0.3,0.3-0.7,0.1-1L3.2,1.3C3,1,2.5,1,2.2,1.2l0,0C1.9,1.5,1.9,2,2.2,2.3l12.6,14.4
	C15,17,15.5,17,15.8,16.8z"/>
</svg>
