<?xml version="1.0" encoding="utf-8"?>
<!-- Generator: Adobe Illustrator 24.3.0, SVG Export Plug-In . SVG Version: 6.00 Build 0)  -->
<svg version="1.1" id="Layer_1" xmlns="http://www.w3.org/2000/svg" xmlns:xlink="http://www.w3.org/1999/xlink" x="0px" y="0px"
	 viewBox="0 0 20.6 15.4" style="enable-background:new 0 0 20.6 15.4;" xml:space="preserve">
<style type="text/css">
	.st0{fill:#E45136;}
</style>
<path class="st0" d="M18.6,13.8L18.6,13.8c0.2-0.3,0.2-0.8-0.1-1L3,1.5C2.7,1.3,2.2,1.3,2,1.7l0,0C1.7,2,1.8,2.4,2.1,2.7l15.5,11.3
	C17.9,14.2,18.4,14.1,18.6,13.8z"/>
<path class="st0" d="M2,13.8L2,13.8c-0.2-0.3-0.2-0.8,0.1-1L17.6,1.5c0.3-0.2,0.8-0.2,1,0.2l0,0c0.2,0.3,0.2,0.8-0.2,1L3,13.9
	C2.7,14.2,2.2,14.1,2,13.8z"/>
</svg>
