<?xml version="1.0" encoding="utf-8"?>
<!-- Generator: Adobe Illustrator 24.3.0, SVG Export Plug-In . SVG Version: 6.00 Build 0)  -->
<svg version="1.1" id="Layer_1" xmlns="http://www.w3.org/2000/svg" xmlns:xlink="http://www.w3.org/1999/xlink" x="0px" y="0px"
	 width="72px" height="71px" viewBox="0 0 72 71" style="enable-background:new 0 0 72 71;" xml:space="preserve">
<style type="text/css">
	.st0{fill:#00C48C;}
</style>
<path class="st0" d="M0,36.4c0.3-0.1,0.5-0.2,0.8-0.3c6.5-2,13-4,19.5-6c4.8-1.5,8-4.7,9.5-9.5c2-6.5,4-13.1,6-19.6
	c0.1-0.2,0.1-0.4,0.2-0.7c0.3,1.1,0.6,2.1,0.9,3c1.8,5.8,3.5,11.5,5.3,17.3c1.5,4.8,4.7,7.9,9.5,9.4c6.6,2.1,13.1,4.1,19.7,6.1
	c0.1,0,0.3,0.1,0.5,0.2c-2.6,0.8-5,1.5-7.5,2.3c-4.3,1.3-8.6,2.6-12.9,4c-4.7,1.5-7.9,4.7-9.4,9.4c-2.1,6.5-4,13.1-6.1,19.6
	c-0.1,0.2-0.1,0.4-0.2,0.7c-0.3-1-0.6-1.9-0.9-2.8c-1.8-5.8-3.6-11.6-5.3-17.3c-1.5-4.9-4.8-8.2-9.7-9.7c-6.5-2-13-4-19.5-6
	C0.4,36.5,0.3,36.5,0,36.4z"/>
</svg>
