<?xml version="1.0" encoding="utf-8"?>
<!-- Generator: Adobe Illustrator 24.3.0, SVG Export Plug-In . SVG Version: 6.00 Build 0)  -->
<svg version="1.1" id="Layer_1" xmlns="http://www.w3.org/2000/svg" xmlns:xlink="http://www.w3.org/1999/xlink" x="0px" y="0px"
	 width="43px" height="41px" viewBox="0 0 43 41" style="enable-background:new 0 0 43 41;" xml:space="preserve">
<style type="text/css">
	.st0{fill:#123399;}
</style>
<path class="st0" d="M1.7,27.2C1.8,27.1,1.9,27,2,27c3.2-2.1,6.3-4.2,9.5-6.4c2.3-1.6,3.5-3.8,3.6-6.6c0-3.8,0.1-7.7,0.1-11.5
	c0-0.1,0-0.2,0-0.4c0.4,0.5,0.7,1,1,1.5c1.9,2.8,3.8,5.6,5.7,8.4c1.6,2.3,3.8,3.5,6.6,3.5c3.9,0,7.7,0.1,11.6,0.1c0.1,0,0.2,0,0.3,0
	c-1.2,0.8-2.4,1.6-3.6,2.4c-2.1,1.4-4.2,2.8-6.3,4.2c-2.3,1.6-3.5,3.8-3.5,6.6c0,3.8-0.1,7.7-0.1,11.5c0,0.1,0,0.2,0,0.4
	c-0.3-0.5-0.6-0.9-0.9-1.3c-1.9-2.8-3.8-5.6-5.7-8.4c-1.6-2.4-3.9-3.6-6.8-3.6c-3.8,0-7.6-0.1-11.5-0.1C1.9,27.2,1.8,27.2,1.7,27.2z
	"/>
</svg>
