<?xml version="1.0" encoding="utf-8"?>
<!-- Generator: Adobe Illustrator 24.3.0, SVG Export Plug-In . SVG Version: 6.00 Build 0)  -->
<svg version="1.1" id="Layer_1" xmlns="http://www.w3.org/2000/svg" xmlns:xlink="http://www.w3.org/1999/xlink" x="0px" y="0px"
	 width="43px" height="41px" viewBox="0 0 43 41" style="enable-background:new 0 0 43 41;" xml:space="preserve">
<style type="text/css">
	.st0{fill:#123399;}
</style>
<path class="st0" d="M2,15.8c0.2,0,0.3,0,0.4,0c3.8-0.2,7.6-0.5,11.3-0.7c2.8-0.2,4.9-1.5,6.4-3.9c2-3.3,3.9-6.6,5.8-9.8
	C26,1.2,26.1,1.1,26.2,1c0,0.6,0.1,1.2,0.1,1.8c0.2,3.4,0.4,6.7,0.7,10.1c0.2,2.8,1.5,4.9,3.9,6.3c3.3,2,6.6,3.9,9.9,5.8
	c0.1,0,0.1,0.1,0.3,0.2c-1.5,0.1-2.9,0.2-4.3,0.3c-2.5,0.2-5,0.3-7.5,0.5c-2.8,0.2-4.9,1.5-6.3,3.9c-2,3.3-3.9,6.6-5.8,9.8
	c-0.1,0.1-0.1,0.2-0.2,0.3c0-0.6-0.1-1.1-0.1-1.6c-0.2-3.4-0.4-6.7-0.7-10.1c-0.2-2.9-1.5-5-4-6.5C8.8,19.9,5.5,18,2.3,16
	C2.2,16,2.1,15.9,2,15.8z"/>
</svg>
