<?xml version="1.0" encoding="utf-8"?>
<!-- Generator: Adobe Illustrator 24.3.0, SVG Export Plug-In . SVG Version: 6.00 Build 0)  -->
<svg version="1.1" id="Layer_1" xmlns:svgjs="http://svgjs.com/svgjs"
	 xmlns="http://www.w3.org/2000/svg" xmlns:xlink="http://www.w3.org/1999/xlink" x="0px" y="0px" viewBox="0 0 512 512"
	 style="enable-background:new 0 0 512 512;" xml:space="preserve">
<style type="text/css">
	.st0{fill:#26C6DA;}
</style>
<g>
	<path class="st0" d="M498.4,229.9c0,4.5,0,9,0,13.4c-0.4,1.7-1,3.4-1.2,5.1c-2.7,22.8-16.6,39.4-31.3,57
		c-8.3-9.8-16.2-18.9-23.7-28.3c-13.1-16.6-29.9-25.7-51.1-27.1c-33.5-2.2-49.6-17.5-54.4-51.3c-0.7-4.8-3.1-7.8-8.4-7.8
		c-5.4-0.1-7.6,3-8.1,7.9c-0.2,1.8-0.2,3.6,0,5.3c2.7,33.5,29.2,59.8,63.2,62c19.2,1.2,35.2,7.6,46.9,23.5
		c5.1,6.8,10.6,13.4,16.7,19.3c7.5,7.3,9.8,15.4,8.6,25.8c-2.9,24.4-11.6,45.8-29.9,62.7c-6.9,6.4-14.5,12.1-21.4,17.8
		c0-1.8,0.1-4.7,0-7.6c-1.1-30-26.7-55.1-56.6-55.7c-5.2-0.1-9.5,1-10.7,6.8c-1,5,3.7,9.5,10.2,9.8c17.6,0.7,39.9,16.3,39.7,39.1
		c-0.1,11.4,0.3,22.8,1,34.2c0.3,5.5-1.3,8.6-6.8,10.3c-11.8,3.6-18.4,10.6-21,23.7c-3.8,19.1-16.6,29.4-33,30.2
		c-13.6,0.7-25.6-4-36-12.4c-20.6-16.8-30.5-38.9-30.5-65.1c-0.2-130.3-0.2-260.5-0.1-390.8c0-3.4,1.1-7.1,2.7-10.1
		c10.5-20.5,54.3-34.5,74.7-11c7.6,8.7,16,12.8,28.4,12.7c22.4-0.1,37.9,12.2,43.8,31.6c-3.4,0.4-6.7,1-10,1.3
		c-20.6,1.9-37.3,20-37.5,40.7c-0.1,5,2,8.4,6.9,9.1c5,0.7,8.1-2,9.3-6.7c0.5-1.9,0.8-3.9,1.2-5.9c2.4-11.6,10.4-19.2,22.1-19.9
		c13.2-0.8,26.5-0.8,39.7-0.8c2,0,4.4,0.9,5.9,2.3c4,3.6,7.8,7.5,11.1,11.6c13.1,16,16.8,34.9,17.9,55.1c0.7,13.2,2.3,26.9,6.5,39.4
		C488.2,201,496.2,214.4,498.4,229.9z M319.2,105.5c-4.2,0.4-8.5,0.4-12.6,1.3c-4.5,0.9-6.9,4-6.4,8.8c0.5,4.7,3.2,7.1,8.1,7.1
		c3.1,0,6.3,0.1,9.4,0.2c12.1,0.3,22.7,4.8,29.8,14.5c4.4,6.1,7.4,13.8,9.4,21.2c4.3,15.8,13.5,27.6,26.8,36.4
		c10.8,7.2,23.1,9.5,36,8c6.8-0.8,10.7-4.6,10.2-9.3c-0.5-5.3-4.9-7.6-12.1-7.5c-5.1,0.1-10.4-0.1-15.2-1.5
		c-16.4-4.7-25.4-16.2-29.6-32.4C365.8,123.9,347.2,108.1,319.2,105.5z M293.2,372.9c-0.1,18.9,5.1,32.7,17.1,43.6
		c2.8,2.6,6,3.9,9.7,1.1c3.8-2.9,4.6-6.5,2.6-10.7c-1.1-2.2-2.7-4-4.2-6c-8.8-12.4-11.3-25.9-5.3-39.9c2.5-5.8,6.7-11,10.8-16
		c17.4-21,19.3-46.9,4.6-69.6c-2.4-3.7-5.5-7.4-9.1-9.6c-2.1-1.3-6.9-0.8-8.8,0.9c-1.9,1.6-2.6,5.8-2.2,8.6c0.4,2.6,2.8,4.9,4.5,7.3
		c6.6,9.1,9.3,19,7.9,30.3c-1.3,10.4-7.4,18-13.7,25.6C298.2,349.3,292.7,361.4,293.2,372.9z"/>
	<path class="st0" d="M13.6,244.7c0-4,0-8.1,0-12.1c2.2-15.9,8.8-30.2,15.8-44.4c2.6-5.3,3.6-11.5,4.4-17.4
		c1.3-10.4,2.2-20.9,2.5-31.4c0.7-23.2,11.5-41.3,27.9-56.8c1.4-1.3,4-2,6-2.1c13-0.1,26,0,39,0.3c13.5,0.4,25,8.8,29.5,21.5
		c1.3,3.6,2,7.3,2.8,11c1,5,2.8,9.3,9,8.7c6.4-0.7,7.6-5.3,7.5-10.7c-0.3-21.2-18.4-42.5-39.7-46.6c-5.4-1-10.9-1.4-16.4-2
		c6-19.1,22-32,41.8-31.3c13.6,0.5,23.9-3.1,32.1-13.5c0.1-0.2,0.3-0.3,0.5-0.5c13.5-9.6,27.8-18,44.7-10.3
		c8.7,3.9,16.6,10.4,23.7,17c3.4,3.1,5.8,8.9,6.1,13.6c1,17.8,1,35.7,1.3,53.6c0.1,6.8,0,13.6,0,18.9c-5.4-0.9-10.5-3.1-14.9-2.2
		c-9.1,1.8-18.6,4-26.7,8.4c-22.8,12.3-33.8,32.6-35.1,58c-1.1,19.6-9,35.2-26.4,44.5c-7.2,3.9-16,5.2-24.1,7.2
		c-4.8,1.2-8.8,2.9-8.8,8.4c0.1,5.6,4,8.1,9.2,8.7c1.5,0.2,3.2,0.1,4.7-0.1c11.9-1.8,22.9-5.8,32.9-12.6
		c20.8-14.1,28.2-34.8,29.9-58.7c1.5-22.6,16.3-39.9,38.2-45.4c7-1.8,14-3.4,21.1-5.1c0,0.7,0,2,0,3.4c0,91.1,0,182.2-0.2,273.2
		c0,15.9,0.8,32-1.9,47.5c-5.5,31.1-23.1,53.1-54.4,62.5c-4.5,0-9,0-13.5,0c-14.9-3.3-26-12.2-28.9-26.8
		c-3.1-15.4-10.5-24.8-25.4-28.9c-1.5-0.4-3.3-3.1-3.3-4.8c0.1-15,0.5-30,0.9-45c0-1.5,0.8-3,1.4-4.4c7.3-16.9,20-26.4,38.6-27.8
		c5.5-0.4,10-3.1,9.7-9c-0.3-5.8-4.8-8.2-10.5-7.9c-2,0.1-4.1,0-6,0.3c-29,4.4-50.3,28.9-50.8,58c0,2.2,0,4.4,0,6.5
		c-3.6-3.9-6.2-8-9.9-10.4c-26-17-38.6-41.6-41-71.7c-0.8-10.4-3.4-19.7-10.1-27.8c-3.9-4.7-7.3-9.6-11.2-14.3
		C23.4,279.7,15.7,263.4,13.6,244.7z M184,360.5c0.8,16.3,6.4,30.4,19,41.5c3.3,2.9,7.1,3,9.5,0c1.9-2.4,2.2-6.2,2.6-9.5
		c0.1-1.2-1.4-2.8-2.4-3.9c-14.7-15.3-15-45.7-0.4-60.2c5-4.9,4-9.9-0.1-15.5c-4-5.5-8.5-11.7-9.4-18.1c-2.3-14.7-1.9-29.4,9.6-41.5
		c5.4-5.7,4.8-10.2,0-13.8c-5.4-4.1-9.1-0.6-12.7,3c-1.4,1.4-2.7,3-3.8,4.7c-15.1,22.4-15.9,45.5-2.6,68.8c2.3,3.9,2.3,6.4-0.1,10.1
		C186.3,336.4,183.7,348.1,184,360.5z M105.2,196.9c14.3,0,24.5-6.4,31.1-18.7c3.3-6.3,2.3-11.4-2.3-13.3c-5.9-2.5-9.9-0.2-12.4,5.4
		c-2.9,6.5-8.2,9.2-15.2,8.7c-5.3-0.4-10.7-1-16-1.5c-13.8-1.3-29.5,8.2-33.9,20.5c-1.7,4.7-1.3,9.2,3.5,11.6
		c4.5,2.3,8.7,1,11.3-3.8c0.6-1.2,1.4-2.3,2.1-3.4c4.4-6.7,10.5-9.3,18.5-7.6C96.4,195.6,100.8,196.2,105.2,196.9z M124.5,295.1
		c0-16-6.7-26.1-18.7-32.9c-5.9-3.3-11.1-2.1-13.3,2.6c-2.5,5.6,0.2,9.1,4.9,12.2c3.2,2.2,7.5,5,8.3,8.2c1.3,5.6,1.2,11.9,0.1,17.6
		c-2.9,15.7,4.2,31.6,18.1,38.3c6.1,2.9,11.2,1.9,13.5-2.6c2.2-4.5,0.1-9.1-5.7-12.3c-7.2-4-10.5-10.9-9.1-19.1
		C123.3,302.5,124,297.9,124.5,295.1z"/>
</g>
</svg>
