<?xml version="1.0" encoding="utf-8"?>
<!-- Generator: Adobe Illustrator 27.0.0, SVG Export Plug-In . SVG Version: 6.00 Build 0)  -->
<svg version="1.1" id="Layer_1" xmlns="http://www.w3.org/2000/svg" xmlns:xlink="http://www.w3.org/1999/xlink" x="0px" y="0px"
	 viewBox="0 0 512 512" style="enable-background:new 0 0 512 512;" xml:space="preserve">
<style type="text/css">
	.st0{fill:#D0D2D1;stroke:#D0D2D1;stroke-width:3.1043;stroke-linecap:round;stroke-linejoin:round;stroke-miterlimit:10;}
	.st1{fill:#FFFFFF;stroke:#FFFFFF;stroke-width:3.1043;stroke-miterlimit:10;}
	.st2{enable-background:new    ;}
	.st3{fill:url(#XMLID_00000093883208171161690120000016278120337608397447_);}
	.st4{fill:url(#XMLID_00000050635559954393167490000011082790821753091247_);}
	.st5{fill:url(#XMLID_00000148634629064500411110000004266338383780034210_);}
	.st6{fill:url(#XMLID_00000088097145227445110570000000763993114772215444_);}
	.st7{fill:#F6AE23;}
	.st8{opacity:0.3;}
	.st9{fill:#E29726;}
	.st10{fill:#FFFFFF;}
	.st11{fill:#00A2C6;}
</style>
<g id="XMLID_182_">
	<g id="XMLID_185_">
		<g id="XMLID_194_">
			<g id="XMLID_218_">
				<path id="XMLID_225_" class="st0" d="M366.67,315.57l36.46-0.39c0.04,0,0.08,0,0.12,0c0.03,0,0.08,0,0.11,0
					c0.05-0.01,0.08-0.01,0.12-0.01c0.04,0,0.08-0.01,0.12-0.01c0.29-0.02,0.58-0.05,0.87-0.1c0.28-0.06,0.56-0.12,0.83-0.21
					c0.26-0.08,0.52-0.19,0.77-0.31c0.26-0.11,0.5-0.25,0.73-0.39c0.27-0.17,0.53-0.35,0.78-0.56c0.24-0.2,0.48-0.42,0.7-0.65
					c0.22-0.24,0.44-0.48,0.64-0.74c0.19-0.27,0.38-0.55,0.56-0.84c0.18-0.29,0.35-0.6,0.5-0.91c0.15-0.32,0.29-0.64,0.41-0.97
					c0.12-0.34,0.23-0.68,0.32-1.03c0.1-0.35,0.18-0.72,0.24-1.09c0.08-0.37,0.12-0.75,0.16-1.14c0.03-0.39,0.04-0.78,0.04-1.18
					c0-0.4-0.01-0.81-0.04-1.23c-0.03-0.41-0.09-0.84-0.16-1.27l-9.42-58.67c-0.07-0.39-0.14-0.76-0.21-1.13
					c-0.09-0.37-0.19-0.73-0.3-1.08c-0.12-0.36-0.25-0.71-0.39-1.05c-0.15-0.35-0.31-0.69-0.47-1.03c-0.03-0.05-0.07-0.11-0.1-0.17
					c-0.02-0.06-0.06-0.11-0.08-0.17c-0.03-0.06-0.06-0.12-0.1-0.17c-0.03-0.06-0.07-0.11-0.1-0.17c-0.15-0.28-0.31-0.54-0.47-0.79
					c-0.17-0.26-0.34-0.51-0.53-0.75c-0.17-0.25-0.36-0.48-0.56-0.72c-0.19-0.23-0.4-0.47-0.61-0.69c-0.26-0.27-0.51-0.53-0.78-0.79
					c-0.27-0.25-0.53-0.48-0.81-0.7c-0.27-0.22-0.55-0.44-0.84-0.63c-0.29-0.2-0.57-0.37-0.87-0.54c-0.3-0.18-0.6-0.33-0.91-0.47
					c-0.29-0.14-0.61-0.25-0.91-0.35c-0.31-0.11-0.62-0.2-0.94-0.26c-0.31-0.08-0.64-0.13-0.96-0.16l-12.11-1.3l7.63,55.43
					l-22.89-0.69v-0.01l-4.32-0.13l-4.9-0.15l-4.85-46.18c-0.02-0.22-0.05-0.45-0.08-0.69c-0.04-0.22-0.07-0.45-0.12-0.67
					c-0.05-0.22-0.09-0.44-0.16-0.66c-0.04-0.21-0.1-0.43-0.17-0.64l-0.2-1.97c0-0.01-0.01-0.01-0.01-0.03c0-0.01,0-0.01,0-0.02
					c0-0.01,0-0.03,0-0.03c0-0.01,0-0.01,0-0.02c-0.15-1.26-0.42-2.51-0.82-3.75c-0.39-1.24-0.91-2.48-1.53-3.71
					c-0.61-1.22-1.33-2.43-2.14-3.63c-0.79-1.2-1.69-2.38-2.64-3.54c-2.92-3.57-6.48-6.97-10.19-10.08
					c-3.72-3.13-7.61-5.97-11.13-8.36c-3.55-2.42-6.75-4.38-9.06-5.76c-2.32-1.38-3.74-2.14-3.74-2.14s-2.41,0.64-6.06,1.93
					c-3.69,1.3-8.69,3.28-13.75,5.94c-5.17,2.71-10.43,6.15-14.42,10.3c-4.07,4.23-6.8,9.18-6.7,14.78l-0.82,86.79l1.7,4.82
					l59.78-1.82c-0.32,0.56-0.65,1.11-0.99,1.65c-0.34,0.54-0.7,1.06-1.06,1.57c-0.37,0.5-0.74,0.99-1.14,1.46
					c-0.39,0.46-0.79,0.93-1.2,1.36c-0.04,0.04-0.07,0.08-0.12,0.12c-0.03,0.04-0.07,0.08-0.1,0.12c-0.05,0.04-0.08,0.08-0.12,0.12
					c-0.05,0.04-0.08,0.08-0.12,0.12c-0.38,0.41-0.76,0.8-1.16,1.18c-0.39,0.39-0.8,0.77-1.2,1.14c-0.42,0.38-0.84,0.75-1.26,1.12
					c-0.44,0.36-0.87,0.72-1.31,1.08c-0.48,0.39-0.97,0.78-1.46,1.16c-0.5,0.39-0.99,0.77-1.51,1.16c-0.5,0.38-1.02,0.77-1.53,1.16
					c-0.53,0.39-1.04,0.79-1.56,1.17c-0.54,0.4-1.06,0.79-1.57,1.2c-0.52,0.4-1.04,0.81-1.56,1.22c-0.52,0.42-1.04,0.84-1.55,1.27
					c-0.51,0.43-1.01,0.87-1.52,1.31c-0.52,0.44-1.02,0.9-1.52,1.36c-0.51,0.47-1,0.96-1.48,1.44c-0.49,0.5-0.97,1-1.45,1.52
					c-0.48,0.52-0.95,1.05-1.42,1.59c-0.47,0.55-0.93,1.11-1.37,1.7c-0.44,0.59-0.86,1.21-1.27,1.85c-0.41,0.64-0.8,1.3-1.18,1.99
					c-0.37,0.69-0.74,1.41-1.09,2.14c-0.3,0.63-0.58,1.24-0.84,1.83c-0.27,0.6-0.5,1.18-0.72,1.74c-0.22,0.57-0.42,1.12-0.61,1.65
					c-0.18,0.53-0.35,1.05-0.49,1.55c-0.14,0.51-0.26,1-0.37,1.46c-0.12,0.46-0.2,0.91-0.28,1.32c-0.07,0.43-0.14,0.83-0.18,1.19
					c-0.05,0.38-0.07,0.74-0.09,1.08l0.03,0.71c0.01,0.26,0.03,0.51,0.07,0.73c0.03,0.23,0.07,0.42,0.14,0.6
					c0.06,0.18,0.12,0.33,0.21,0.46c0.08,0.13,0.17,0.24,0.29,0.34c0.04,0.04,0.09,0.07,0.13,0.11c0.05,0.03,0.09,0.06,0.14,0.09
					c0.06,0.02,0.11,0.03,0.17,0.04c0.05,0.01,0.11,0.01,0.17,0c0.01,0,0.01,0,0.02,0c0,0,0,0,0.01,0c0,0,0.01,0,0.02,0
					c0,0,0,0,0.01,0c0.11-0.01,0.21-0.04,0.31-0.08c0.1-0.04,0.22-0.1,0.33-0.16c0.12-0.08,0.24-0.16,0.37-0.25
					c0.12-0.1,0.26-0.21,0.38-0.34c0.5-0.43,1-0.87,1.51-1.29c0.51-0.42,1.02-0.83,1.53-1.23c0.51-0.4,1.04-0.8,1.56-1.17
					c0.52-0.39,1.04-0.75,1.58-1.11c0.49-0.34,0.99-0.68,1.49-0.99c0.5-0.33,1-0.64,1.52-0.94c0.5-0.3,1.01-0.6,1.53-0.89
					c0.52-0.28,1.03-0.56,1.56-0.83c1.07-0.54,2.14-1.08,3.21-1.61c1.07-0.52,2.13-1.03,3.19-1.52c1.06-0.5,2.11-0.98,3.17-1.45
					c1.04-0.47,2.1-0.92,3.13-1.36c1.05-0.44,2.09-0.88,3.11-1.33c1.03-0.44,2.04-0.88,3.06-1.32c1-0.44,2.02-0.89,3-1.33
					c0.98-0.44,1.96-0.89,2.94-1.34c0.98-0.44,1.93-0.91,2.86-1.41c0.92-0.48,1.83-1,2.71-1.54c0.89-0.54,1.75-1.1,2.59-1.69
					c0.83-0.59,1.64-1.2,2.45-1.83c0.79-0.63,1.55-1.3,2.3-2.01c0.74-0.69,1.45-1.43,2.13-2.19c0.68-0.76,1.33-1.55,1.96-2.38
					c0.63-0.83,1.22-1.68,1.8-2.57c0.57-0.89,1.11-1.84,1.61-2.85c0.49-1,0.93-2.06,1.36-3.18c0.41-1.1,0.8-2.27,1.14-3.49
					c0.34-1.22,0.64-2.49,0.9-3.82l7.94-0.08l4.6-0.05V315.57z"/>
				<path id="XMLID_224_" class="st0" d="M192.98,220.33c-0.12-0.44-0.27-0.88-0.45-1.3c-0.02-0.09-0.06-0.17-0.09-0.25
					c-0.03-0.09-0.07-0.16-0.11-0.24c-0.03-0.09-0.07-0.16-0.11-0.25c-0.03-0.07-1.78-4.38-1.81-4.46
					c-0.16-0.34,1.35,3.55,1.17,3.23c-0.19-0.33-0.39-0.64-0.6-0.96c-0.21-0.31-0.44-0.62-0.69-0.91c-0.24-0.29-0.49-0.59-0.75-0.88
					c-0.34-0.36-0.67-0.7-1.04-1.03c-0.36-0.33-0.73-0.63-1.12-0.91c-0.38-0.3-0.79-0.57-1.21-0.83c-0.42-0.26-0.85-0.51-1.31-0.73
					c-0.44-0.24-0.91-0.45-1.39-0.63c-0.48-0.18-0.96-0.35-1.46-0.49c-0.51-0.15-1.02-0.27-1.55-0.37c-0.52-0.1-1.06-0.17-1.61-0.24
					l-20.81-2.26l-7.54,72.1l-26.72-0.82l-8.55-0.26l9.59-68.03l0.91-6.51l-1.7-4.13l-21.66,1.6c-0.07-0.01-0.13-0.01-0.19-0.01
					c-0.07-0.01-0.12-0.02-0.18-0.02c-0.06-0.01-0.11-0.01-0.17-0.02c-0.07-0.01-0.13-0.01-0.19-0.01
					c-0.57-0.04-1.15-0.07-1.72-0.07c-0.57-0.01-1.15,0.01-1.71,0.05c-0.57,0.04-1.14,0.09-1.7,0.18c-0.56,0.08-1.11,0.18-1.67,0.29
					c-0.61,0.14-1.21,0.28-1.78,0.46s-1.14,0.38-1.7,0.59c-0.54,0.23-1.09,0.46-1.61,0.72c-0.53,0.26-1.04,0.54-1.54,0.85
					c-0.49,0.3-0.97,0.63-1.42,0.97c-0.46,0.34-0.9,0.69-1.31,1.06c-0.43,0.37-0.82,0.76-1.2,1.15c-0.38,0.4-0.73,0.82-1.08,1.25
					c-0.34,0.43-0.65,0.88-0.94,1.33c-0.28,0.46-0.52,0.93-0.74,1.41c-0.23,0.49-0.41,0.98-0.57,1.5c-0.17,0.52-0.29,1.04-0.39,1.58
					l-16.26,85.85c-0.12,0.65-0.2,1.28-0.25,1.91c-0.05,0.62-0.06,1.24-0.03,1.85c0.03,0.6,0.1,1.2,0.2,1.78
					c0.11,0.59,0.25,1.16,0.43,1.72c0.19,0.56,0.4,1.1,0.64,1.63c0.24,0.54,0.51,1.06,0.8,1.56c0.29,0.5,0.63,0.99,0.97,1.46
					c0.37,0.47,0.75,0.92,1.17,1.36c0.35,0.37,0.72,0.72,1.1,1.06c0.39,0.34,0.79,0.65,1.21,0.96c0.43,0.3,0.88,0.59,1.34,0.85
					c0.46,0.27,0.95,0.52,1.45,0.74c0.09,0.05,0.18,0.09,0.27,0.13c0.08,0.04,0.17,0.08,0.27,0.11c0.09,0.03,0.18,0.08,0.27,0.12
					c0.09,0.03,0.18,0.06,0.28,0.11c0.61,0.24,1.25,0.45,1.9,0.63c0.65,0.18,1.32,0.33,2,0.45c0.69,0.11,1.39,0.2,2.11,0.25
					c0.71,0.05,1.45,0.07,2.19,0.06l87.45-0.93c0.06,0,0.11,0,0.17,0c0.06,0,0.11,0,0.18,0c0.06,0,0.12-0.01,0.17-0.01
					c0.06,0,0.11,0,0.18,0c0.55-0.03,1.09-0.09,1.64-0.15c0.54-0.08,1.06-0.17,1.59-0.29c0.52-0.11,1.04-0.25,1.53-0.41
					c0.51-0.17,1-0.35,1.49-0.55c0.55-0.23,1.07-0.48,1.58-0.75c0.52-0.27,1.01-0.56,1.5-0.87c0.46-0.31,0.92-0.64,1.37-1
					c0.44-0.35,0.88-0.73,1.28-1.12c0.42-0.39,0.82-0.8,1.19-1.22c0.38-0.42,0.73-0.85,1.07-1.29c0.33-0.45,0.64-0.9,0.94-1.38
					c0.3-0.46,0.57-0.95,0.83-1.45c0.26-0.5,0.48-1,0.69-1.51c0.2-0.52,0.37-1.04,0.52-1.57c0.14-0.54,0.26-1.08,0.35-1.63
					c0.1-0.54,0.16-1.1,0.2-1.67l4.84-76.32c0.04-0.49,0.05-0.97,0.03-1.43c-0.03-0.48-0.07-0.94-0.14-1.39
					C193.2,221.22,193.11,220.78,192.98,220.33z"/>
				<path id="XMLID_223_" class="st0" d="M126.19,176.13c0.12,0.54,0.28,1.08,0.47,1.61c0.19,0.54,0.41,1.05,0.65,1.56
					c0.24,0.51,0.51,1,0.82,1.49c0.29,0.48,0.63,0.95,0.98,1.4c0.34,0.46,0.73,0.9,1.14,1.33c0.29,0.31,0.59,0.61,0.91,0.89
					c0.32,0.29,0.63,0.57,0.97,0.83c0.34,0.27,0.68,0.54,1.05,0.79c0.35,0.25,0.72,0.5,1.1,0.74c0.16,0.1,0.33,0.19,0.48,0.3
					c0.16,0.09,0.32,0.19,0.48,0.28c0.17,0.1,0.34,0.18,0.5,0.28c0.17,0.09,0.35,0.19,0.52,0.27c0.58,0.29,1.18,0.57,1.8,0.82
					c0.62,0.24,1.24,0.46,1.88,0.66c0.63,0.18,1.28,0.36,1.94,0.49c0.66,0.14,1.33,0.26,2.02,0.33c0.06,0.01,0.12,0.02,0.2,0.03
					c0.06,0,0.11,0.01,0.18,0.02c0.07,0.01,0.14,0.01,0.19,0.02c0.07,0.01,0.14,0.01,0.2,0.02c0.6,0.05,1.22,0.09,1.81,0.1
					c0.6,0.01,1.19-0.01,1.78-0.04c0.59-0.04,1.16-0.1,1.74-0.19c0.57-0.09,1.14-0.19,1.7-0.32c0.63-0.14,1.23-0.3,1.83-0.49
					c0.58-0.18,1.15-0.38,1.7-0.61c0.55-0.23,1.07-0.46,1.59-0.73c0.51-0.26,1-0.55,1.48-0.86c0.46-0.3,0.91-0.61,1.34-0.96
					c0.43-0.35,0.84-0.7,1.23-1.07c0.39-0.37,0.75-0.77,1.1-1.18c0.34-0.41,0.68-0.83,0.98-1.27c0.3-0.45,0.56-0.91,0.81-1.39
					c0.24-0.46,0.44-0.94,0.63-1.43c0.17-0.49,0.32-0.99,0.43-1.5c0.11-0.51,0.19-1.03,0.25-1.57c0.05-0.53,0.07-1.06,0.07-1.58
					c-0.01-0.51-0.06-1.04-0.13-1.55c-0.08-0.51-0.18-1.03-0.33-1.54c-0.14-0.51-0.32-1.02-0.52-1.52
					c-0.05-0.15-0.11-0.29-0.18-0.44c-0.06-0.15-0.12-0.29-0.19-0.44c-0.06-0.15-0.14-0.28-0.2-0.43c-0.07-0.15-0.15-0.29-0.22-0.43
					c-0.18-0.33-0.38-0.66-0.58-0.99c-0.2-0.32-0.42-0.64-0.65-0.95c-0.23-0.31-0.46-0.62-0.71-0.92c-0.25-0.3-0.51-0.6-0.79-0.88
					c-0.38-0.41-0.79-0.8-1.22-1.18c-0.42-0.37-0.88-0.74-1.35-1.09c-0.46-0.35-0.96-0.67-1.47-0.99c-0.51-0.32-1.04-0.63-1.6-0.91
					c-0.55-0.28-1.1-0.54-1.69-0.78c-0.57-0.24-1.17-0.45-1.78-0.65c-0.6-0.19-1.23-0.36-1.85-0.51c-0.62-0.15-1.28-0.28-1.93-0.39
					c-0.07-0.01-0.12-0.01-0.19-0.03c-0.07-0.01-0.14-0.02-0.19-0.02c-0.07-0.01-0.14-0.03-0.21-0.03c-0.06,0-0.12-0.02-0.18-0.02
					c-0.6-0.08-1.17-0.13-1.76-0.16c-0.58-0.03-1.15-0.05-1.72-0.03c-0.57,0.01-1.14,0.04-1.7,0.08c-0.56,0.06-1.13,0.13-1.68,0.21
					c-0.62,0.11-1.23,0.24-1.82,0.37c-0.59,0.15-1.17,0.33-1.73,0.52c-0.55,0.19-1.1,0.41-1.63,0.64c-0.54,0.24-1.05,0.51-1.54,0.78
					c-0.5,0.29-0.98,0.59-1.43,0.91c-0.46,0.33-0.89,0.66-1.3,1.03c-0.42,0.37-0.81,0.75-1.17,1.15c-0.37,0.4-0.73,0.83-1.06,1.27
					c-0.33,0.44-0.62,0.89-0.88,1.36c-0.27,0.48-0.51,0.95-0.72,1.45c-0.2,0.5-0.38,1-0.51,1.53c-0.15,0.52-0.26,1.06-0.34,1.6
					c-0.08,0.55-0.13,1.1-0.15,1.65c-0.01,0.55,0.01,1.09,0.06,1.63C125.98,175.05,126.06,175.59,126.19,176.13z"/>
				<path id="XMLID_222_" class="st0" d="M234.23,173.14c-0.05-0.01-0.09-0.01-0.15-0.03c-0.05,0-0.1-0.01-0.14-0.01
					c-0.05-0.01-0.09-0.01-0.15-0.02c-0.41-0.05-0.8-0.08-1.2-0.09c-0.4-0.02-0.79-0.01-1.17,0.01c-0.39,0.02-0.77,0.07-1.15,0.12
					c-0.36,0.06-0.74,0.13-1.1,0.22c-0.4,0.1-0.8,0.22-1.18,0.35c-0.39,0.13-0.77,0.28-1.13,0.44c-0.37,0.16-0.72,0.34-1.06,0.53
					c-0.35,0.19-0.68,0.4-1.01,0.62c-0.33,0.23-0.63,0.46-0.93,0.72c-0.3,0.25-0.57,0.52-0.83,0.8c-0.26,0.29-0.5,0.58-0.73,0.9
					c-0.23,0.32-0.44,0.64-0.62,0.99c-0.2,0.34-0.37,0.69-0.52,1.06c-0.16,0.37-0.28,0.75-0.37,1.13c-0.11,0.39-0.19,0.78-0.25,1.2
					c-0.06,0.42-0.09,0.82-0.11,1.26l-6.53,129.06l1.71,4.83l7.17-0.08l13.16-0.15c0.07,0,0.12,0,0.19,0c0.06,0,0.11,0,0.18-0.01
					c0.06,0,0.12,0,0.18,0c0.06-0.01,0.12-0.01,0.18-0.01c0.47-0.02,0.93-0.07,1.39-0.14c0.45-0.07,0.9-0.15,1.33-0.26
					c0.44-0.1,0.88-0.24,1.3-0.38c0.43-0.15,0.85-0.32,1.25-0.5c0.46-0.21,0.91-0.45,1.36-0.7c0.42-0.25,0.84-0.52,1.23-0.81
					c0.4-0.29,0.78-0.6,1.14-0.92c0.36-0.33,0.71-0.68,1.03-1.05c0.33-0.36,0.64-0.74,0.93-1.13c0.3-0.39,0.57-0.79,0.83-1.2
					c0.26-0.42,0.5-0.84,0.73-1.27c0.22-0.43,0.44-0.88,0.63-1.34c0.2-0.46,0.37-0.93,0.51-1.41c0.15-0.47,0.27-0.97,0.37-1.46
					c0.09-0.5,0.17-0.99,0.21-1.52c0.05-0.51,0.08-1.04,0.07-1.56l0.08-120.29v-5.22l-1.7-3.96l-14.99,1.33
					C234.32,173.15,234.28,173.14,234.23,173.14z"/>
				<path id="XMLID_221_" class="st0" d="M418.6,344.83c-0.09-0.54-0.19-1.08-0.32-1.61c-0.12-0.53-0.27-1.05-0.43-1.55
					c-0.17-0.51-0.35-1.01-0.54-1.51c-0.19-0.49-0.41-0.98-0.64-1.45c-0.08-0.15-0.15-0.29-0.22-0.43
					c-0.07-0.13-0.15-0.27-0.22-0.41c-0.07-0.14-0.15-0.27-0.23-0.4c-0.08-0.13-0.16-0.26-0.23-0.4c-0.18-0.3-0.38-0.6-0.56-0.89
					c-0.2-0.29-0.39-0.57-0.6-0.84c-0.2-0.28-0.42-0.54-0.63-0.79c-0.22-0.26-0.44-0.51-0.66-0.74c-0.32-0.35-0.66-0.68-0.99-0.99
					c-0.34-0.3-0.69-0.6-1.04-0.87c-0.35-0.27-0.72-0.52-1.1-0.76c-0.36-0.24-0.75-0.46-1.14-0.65c-0.41-0.2-0.8-0.36-1.19-0.51
					c-0.41-0.15-0.8-0.27-1.2-0.35c-0.41-0.1-0.81-0.17-1.21-0.2c-0.41-0.04-0.82-0.06-1.23-0.04c-0.04,0-0.09,0-0.12,0
					c-0.05,0.01-0.08,0.01-0.13,0.01c-0.03,0-0.07,0-0.11,0c-0.05,0-0.08,0.01-0.12,0.01c-0.37,0.03-0.71,0.08-1.06,0.15
					c-0.35,0.07-0.69,0.17-1.02,0.28c-0.33,0.11-0.65,0.25-0.97,0.41c-0.31,0.16-0.63,0.34-0.92,0.55
					c-0.33,0.23-0.65,0.48-0.96,0.73c-0.31,0.27-0.61,0.55-0.88,0.84c-0.28,0.3-0.55,0.62-0.8,0.95c-0.26,0.34-0.49,0.69-0.71,1.06
					c-0.24,0.38-0.45,0.76-0.64,1.18c-0.19,0.41-0.37,0.83-0.53,1.27c-0.16,0.44-0.3,0.9-0.42,1.37c-0.12,0.47-0.24,0.96-0.33,1.46
					c-0.07,0.42-0.12,0.83-0.18,1.26c-0.04,0.43-0.08,0.86-0.1,1.3c-0.01,0.43-0.02,0.88-0.01,1.33c0.01,0.45,0.05,0.89,0.08,1.35
					c0.01,0.1,0.02,0.2,0.02,0.3c0.01,0.09,0.02,0.19,0.04,0.3c0,0.09,0.02,0.2,0.03,0.3c0.02,0.1,0.03,0.2,0.04,0.3
					c0.08,0.57,0.17,1.13,0.28,1.68c0.12,0.55,0.26,1.09,0.41,1.63c0.16,0.53,0.33,1.07,0.52,1.59c0.19,0.52,0.41,1.03,0.64,1.53
					c0.05,0.1,0.09,0.19,0.13,0.29c0.06,0.09,0.1,0.19,0.15,0.28c0.05,0.09,0.1,0.18,0.14,0.28c0.06,0.09,0.1,0.19,0.16,0.27
					c0.2,0.38,0.41,0.76,0.63,1.12c0.23,0.35,0.46,0.71,0.7,1.04c0.24,0.34,0.49,0.66,0.74,0.97c0.26,0.32,0.52,0.62,0.79,0.91
					c0.25,0.26,0.49,0.5,0.74,0.73c0.25,0.24,0.51,0.47,0.76,0.69c0.26,0.21,0.52,0.41,0.79,0.6c0.27,0.19,0.53,0.37,0.82,0.54
					c0.1,0.07,0.21,0.14,0.33,0.2c0.11,0.07,0.22,0.13,0.34,0.19c0.11,0.06,0.22,0.11,0.34,0.18c0.11,0.06,0.23,0.11,0.34,0.16
					c0.41,0.2,0.81,0.36,1.23,0.49c0.39,0.13,0.81,0.24,1.23,0.31c0.41,0.08,0.83,0.12,1.24,0.14c0.42,0.03,0.83,0.01,1.26-0.01
					c0.04-0.01,0.09-0.01,0.13-0.02c0.03,0,0.09,0,0.13-0.01c0.04,0,0.09-0.01,0.12-0.01c0.04,0,0.09-0.01,0.14-0.02
					c0.36-0.05,0.74-0.11,1.08-0.21c0.35-0.09,0.69-0.2,1.03-0.34c0.33-0.13,0.66-0.29,0.98-0.46c0.32-0.17,0.63-0.37,0.92-0.59
					c0.34-0.25,0.66-0.5,0.97-0.78c0.3-0.27,0.6-0.58,0.87-0.89c0.27-0.32,0.54-0.65,0.78-1c0.25-0.35,0.47-0.72,0.68-1.11
					c0.22-0.38,0.42-0.8,0.6-1.22c0.17-0.42,0.33-0.86,0.47-1.31c0.16-0.44,0.28-0.91,0.39-1.38c0.11-0.47,0.21-0.97,0.28-1.46
					c0.08-0.51,0.15-1.01,0.18-1.53c0.04-0.51,0.06-1.04,0.06-1.56c-0.01-0.52-0.03-1.05-0.08-1.59
					C418.76,345.91,418.7,345.38,418.6,344.83z"/>
				<path id="XMLID_220_" class="st0" d="M391.05,346.35c-0.08-0.57-0.17-1.13-0.3-1.68c-0.11-0.55-0.25-1.09-0.4-1.62
					c-0.17-0.53-0.34-1.06-0.53-1.57c-0.2-0.51-0.41-1.02-0.66-1.52c-0.06-0.15-0.14-0.29-0.21-0.44c-0.07-0.15-0.15-0.3-0.23-0.44
					c-0.07-0.15-0.15-0.28-0.23-0.42c-0.08-0.15-0.16-0.28-0.24-0.42c-0.18-0.31-0.37-0.63-0.57-0.93
					c-0.21-0.29-0.41-0.58-0.62-0.87c-0.21-0.28-0.43-0.56-0.65-0.82c-0.22-0.27-0.44-0.53-0.68-0.78c-0.34-0.36-0.68-0.7-1.04-1.02
					c-0.36-0.32-0.72-0.62-1.09-0.9c-0.38-0.28-0.76-0.55-1.16-0.8c-0.39-0.24-0.79-0.47-1.21-0.68c-0.42-0.21-0.83-0.38-1.25-0.53
					c-0.42-0.16-0.84-0.28-1.28-0.38c-0.42-0.1-0.86-0.16-1.29-0.2c-0.44-0.04-0.89-0.06-1.32-0.04c-0.05,0-0.1,0-0.14,0
					c-0.06,0-0.11,0-0.16,0c-0.05,0.01-0.1,0.01-0.15,0.01c-0.05,0-0.1,0.01-0.15,0.01c-0.39,0.03-0.77,0.08-1.14,0.16
					c-0.37,0.08-0.74,0.18-1.11,0.3c-0.36,0.13-0.71,0.27-1.06,0.44c-0.34,0.17-0.69,0.35-1.03,0.56c-0.37,0.23-0.74,0.5-1.09,0.77
					c-0.35,0.27-0.68,0.56-1,0.88c-0.32,0.31-0.62,0.64-0.9,1c-0.29,0.35-0.57,0.73-0.83,1.12c-0.26,0.39-0.5,0.8-0.72,1.22
					c-0.24,0.42-0.44,0.87-0.63,1.32c-0.2,0.46-0.36,0.94-0.51,1.43c-0.16,0.5-0.29,1.01-0.4,1.53c-0.12,0.53-0.21,1.06-0.29,1.61
					c-0.07,0.55-0.12,1.09-0.15,1.66c-0.03,0.56-0.03,1.14-0.01,1.71c0.02,0.57,0.07,1.16,0.13,1.76c0.06,0.58,0.14,1.17,0.25,1.74
					c0.1,0.58,0.23,1.15,0.38,1.7c0.15,0.56,0.31,1.11,0.51,1.65c0.19,0.54,0.4,1.07,0.64,1.59c0.23,0.52,0.48,1.03,0.75,1.52
					c0.26,0.48,0.55,0.94,0.85,1.4c0.29,0.45,0.61,0.88,0.93,1.29c0.32,0.42,0.66,0.81,1.01,1.19c0.25,0.26,0.51,0.51,0.77,0.75
					c0.26,0.24,0.52,0.47,0.8,0.69c0.28,0.22,0.54,0.43,0.82,0.62c0.27,0.2,0.56,0.38,0.86,0.56c0.12,0.07,0.24,0.15,0.38,0.22
					c0.12,0.07,0.25,0.14,0.38,0.2c0.12,0.07,0.25,0.13,0.38,0.2c0.12,0.06,0.26,0.12,0.37,0.18c0.45,0.19,0.9,0.35,1.34,0.5
					c0.46,0.14,0.9,0.24,1.34,0.32c0.44,0.07,0.89,0.12,1.34,0.15c0.46,0.02,0.91,0.01,1.37-0.03c0.04,0,0.08,0,0.12-0.01
					c0.05,0,0.09-0.01,0.15-0.01c0.04-0.01,0.09-0.01,0.14-0.01c0.03-0.01,0.09-0.01,0.13-0.01c0.4-0.06,0.8-0.13,1.18-0.23
					c0.37-0.1,0.76-0.22,1.12-0.36c0.37-0.14,0.73-0.31,1.07-0.49c0.35-0.18,0.69-0.39,1.02-0.61c0.37-0.25,0.72-0.53,1.06-0.82
					c0.33-0.29,0.65-0.6,0.96-0.94c0.31-0.32,0.59-0.68,0.87-1.05c0.26-0.38,0.53-0.76,0.78-1.17c0.24-0.41,0.46-0.83,0.67-1.27
					c0.21-0.43,0.4-0.89,0.58-1.35c0.16-0.46,0.32-0.95,0.47-1.44c0.13-0.5,0.25-1,0.35-1.53c0.1-0.53,0.18-1.06,0.24-1.59
					c0.06-0.54,0.1-1.08,0.11-1.63c0.01-0.55,0-1.1-0.03-1.66C391.18,347.48,391.13,346.92,391.05,346.35z"/>
				<path id="XMLID_219_" class="st0" d="M477.43,305.3c-0.03-0.36-0.08-0.73-0.13-1.1c-0.06-0.39-0.13-0.76-0.22-1.15l-12.1-53.29
					c-0.07-0.35-0.17-0.7-0.27-1.03c-0.11-0.34-0.22-0.66-0.34-0.99c-0.11-0.33-0.25-0.65-0.39-0.97c-0.14-0.32-0.3-0.62-0.47-0.94
					c-0.01-0.05-0.04-0.11-0.08-0.16c-0.03-0.06-0.06-0.12-0.1-0.18c-0.03-0.05-0.06-0.11-0.1-0.16c-0.03-0.06-0.06-0.11-0.1-0.17
					c-0.15-0.24-0.3-0.47-0.44-0.7c-0.15-0.23-0.31-0.46-0.47-0.68c-0.15-0.22-0.33-0.44-0.5-0.65c-0.16-0.21-0.35-0.41-0.52-0.62
					c-0.22-0.25-0.45-0.48-0.68-0.7c-0.23-0.23-0.46-0.44-0.7-0.64c-0.24-0.2-0.47-0.38-0.73-0.56c-0.25-0.18-0.49-0.35-0.75-0.49
					c-0.25-0.15-0.5-0.3-0.77-0.42c-0.26-0.12-0.51-0.24-0.78-0.32c-0.25-0.1-0.51-0.17-0.78-0.24c-0.26-0.06-0.53-0.1-0.79-0.14
					l-16.08-1.74c-0.31-0.05-0.61-0.09-0.96-0.14c-0.32-0.05-0.65-0.09-0.99-0.14c-0.35-0.05-0.7-0.08-1.06-0.13
					c-0.35-0.04-0.72-0.09-1.1-0.13l-2.37-0.26c-0.06,0.01-0.12,0.01-0.18,0.01c-0.07,0-0.14,0-0.2-0.01c-0.07,0-0.14,0-0.2,0
					c-0.07,0-0.14-0.01-0.19-0.01c-0.07-0.01-0.12-0.01-0.17-0.01c-0.07,0-0.11-0.01-0.17-0.01c-0.07,0-0.12-0.01-0.18-0.01
					c-0.06-0.01-0.11-0.02-0.17-0.03c-0.5-0.05-1-0.11-1.51-0.17c-0.51-0.06-1.02-0.12-1.53-0.2c-0.51-0.07-1.03-0.13-1.54-0.21
					c-0.51-0.08-1.03-0.16-1.54-0.25c-0.66-0.1-1.33-0.2-1.99-0.33c-0.66-0.12-1.32-0.26-1.96-0.4c-0.66-0.14-1.31-0.28-1.96-0.44
					c-0.65-0.16-1.3-0.33-1.93-0.5c-0.64-0.18-1.27-0.36-1.89-0.57c-0.61-0.21-1.21-0.43-1.79-0.66c-0.58-0.24-1.14-0.49-1.68-0.76
					c-0.54-0.26-1.07-0.54-1.58-0.85c-0.05-0.04-0.11-0.06-0.16-0.09c-0.06-0.03-0.1-0.06-0.15-0.08c-0.05-0.02-0.1-0.04-0.14-0.06
					c-0.03-0.01-0.08-0.01-0.13-0.02l0,0h-0.01c0,0,0,0,0,0l0,0c-0.1-0.01-0.19,0.01-0.25,0.05c-0.07,0.05-0.13,0.12-0.16,0.21
					c-0.05,0.09-0.06,0.21-0.07,0.36c-0.01,0.14-0.01,0.32,0.01,0.51c0,0.06,0,0.12,0,0.18c0,0.06,0.01,0.12,0.01,0.18
					c0,0.06,0,0.12,0.01,0.18c0.01,0.06,0.02,0.12,0.03,0.18c0.03,0.26,0.1,0.53,0.18,0.83c0.07,0.3,0.17,0.61,0.28,0.94
					c0.11,0.33,0.24,0.66,0.39,1.03c0.15,0.36,0.31,0.74,0.49,1.14c0.23,0.51,0.48,1.04,0.75,1.57c0.28,0.55,0.57,1.1,0.9,1.67
					c0.32,0.57,0.67,1.16,1.04,1.77c0.37,0.61,0.77,1.22,1.18,1.86c0.43,0.64,0.86,1.27,1.32,1.9c0.46,0.62,0.95,1.24,1.45,1.86
					c0.51,0.61,1.03,1.22,1.58,1.82c0.55,0.6,1.12,1.2,1.7,1.79c0.08,0.08,0.17,0.17,0.25,0.24c0.09,0.09,0.16,0.17,0.26,0.26
					c0.09,0.08,0.16,0.16,0.25,0.24c0.09,0.08,0.17,0.17,0.26,0.24c0.57,0.54,1.17,1.06,1.77,1.57c0.61,0.51,1.24,0.99,1.87,1.46
					c0.65,0.47,1.3,0.92,1.97,1.37c0.67,0.44,1.36,0.86,2.07,1.26c0.8,0.47,1.63,0.88,2.47,1.25c0.85,0.37,1.71,0.7,2.59,0.98
					c0.88,0.28,1.78,0.51,2.7,0.71c0.91,0.19,1.84,0.34,2.8,0.44l10.32,0.74l0.98,4.74l4.59,21.93l-38.71-1.19l2.61,15.5
					c0.08,0.42,0.17,0.84,0.27,1.25c0.1,0.42,0.2,0.82,0.34,1.21c0.13,0.4,0.27,0.78,0.42,1.17c0.16,0.38,0.33,0.75,0.51,1.12
					c0.19,0.37,0.37,0.72,0.58,1.07c0.2,0.35,0.42,0.69,0.64,1.01c0.21,0.33,0.46,0.65,0.7,0.96c0.24,0.3,0.49,0.6,0.75,0.89
					c0.22,0.24,0.44,0.47,0.67,0.7c0.24,0.23,0.47,0.43,0.71,0.63c0.25,0.2,0.49,0.39,0.74,0.57c0.25,0.17,0.5,0.34,0.75,0.49
					c0.05,0.02,0.08,0.05,0.13,0.07c0.05,0.02,0.08,0.06,0.12,0.07c0.05,0.03,0.09,0.04,0.12,0.07c0.05,0.02,0.09,0.05,0.12,0.07
					c0.31,0.16,0.62,0.3,0.93,0.42c0.31,0.12,0.62,0.22,0.93,0.29c0.31,0.09,0.62,0.14,0.94,0.17c0.32,0.04,0.63,0.06,0.95,0.05
					l40.83-0.43c0.02,0,0.05,0,0.08,0c0.01,0,0.05,0,0.08,0c0.02,0,0.04,0,0.07,0c0.03-0.01,0.06-0.01,0.08-0.01
					c0.25-0.02,0.49-0.05,0.72-0.09c0.22-0.05,0.45-0.11,0.67-0.19c0.21-0.07,0.42-0.16,0.62-0.27c0.2-0.1,0.4-0.23,0.59-0.37
					c0.2-0.15,0.39-0.32,0.57-0.5c0.18-0.18,0.35-0.38,0.51-0.59c0.16-0.21,0.31-0.43,0.45-0.68c0.14-0.24,0.27-0.48,0.38-0.75
					c0.12-0.27,0.22-0.54,0.33-0.82c0.1-0.28,0.18-0.57,0.25-0.87c0.07-0.3,0.14-0.6,0.18-0.92c0.05-0.32,0.09-0.64,0.11-0.98
					c0.02-0.33,0.03-0.68,0.03-1.03C477.48,306.02,477.47,305.66,477.43,305.3z"/>
			</g>
			<g id="XMLID_209_">
				<path id="XMLID_216_" class="st1" d="M364.96,310.77l36.47-0.4c0.03,0,0.07,0,0.13,0c0.03,0,0.07,0,0.11,0
					c0.03,0,0.08-0.01,0.11-0.01c0.04,0,0.07-0.01,0.11-0.01c0.3-0.02,0.59-0.06,0.88-0.11c0.28-0.05,0.55-0.11,0.82-0.21
					c0.28-0.08,0.53-0.19,0.78-0.3c0.26-0.11,0.5-0.25,0.73-0.4c0.28-0.16,0.53-0.35,0.78-0.55c0.25-0.2,0.48-0.42,0.7-0.65
					c0.22-0.23,0.43-0.48,0.64-0.74c0.2-0.26,0.39-0.54,0.57-0.83c0.18-0.3,0.34-0.6,0.5-0.91c0.14-0.31,0.28-0.63,0.41-0.96
					c0.12-0.33,0.24-0.67,0.33-1.02c0.1-0.36,0.18-0.72,0.24-1.08c0.07-0.37,0.12-0.75,0.15-1.14c0.03-0.38,0.06-0.77,0.06-1.18
					c-0.01-0.39-0.02-0.8-0.06-1.22c-0.04-0.41-0.09-0.83-0.16-1.26l-9.42-58.32c-0.06-0.38-0.14-0.75-0.23-1.12
					c-0.08-0.36-0.19-0.73-0.3-1.07c-0.12-0.36-0.25-0.71-0.38-1.05c-0.15-0.35-0.31-0.68-0.47-1.01c-0.03-0.06-0.06-0.11-0.1-0.18
					c-0.03-0.06-0.06-0.11-0.08-0.17c-0.03-0.05-0.06-0.11-0.09-0.16c-0.03-0.06-0.08-0.11-0.1-0.17c-0.16-0.27-0.32-0.53-0.48-0.79
					c-0.17-0.26-0.34-0.51-0.52-0.75c-0.18-0.24-0.37-0.48-0.56-0.72c-0.19-0.23-0.39-0.47-0.6-0.69c-0.26-0.27-0.53-0.53-0.78-0.78
					c-0.27-0.24-0.53-0.48-0.81-0.7c-0.28-0.22-0.55-0.43-0.84-0.62c-0.29-0.19-0.57-0.37-0.86-0.54c-0.3-0.17-0.6-0.32-0.9-0.46
					c-0.3-0.13-0.62-0.26-0.93-0.36c-0.3-0.1-0.62-0.19-0.95-0.26c-0.3-0.07-0.63-0.13-0.96-0.16l-12.1-1.3l7.64,55.11l-22.9-0.69v0
					l-4.31-0.13l-4.9-0.15l-4.85-45.9c-0.03-0.23-0.05-0.46-0.09-0.68c-0.02-0.22-0.07-0.45-0.12-0.67
					c-0.05-0.22-0.09-0.45-0.15-0.66c-0.04-0.22-0.11-0.43-0.18-0.64l-0.21-1.96c0,0,0-0.02,0-0.02c0-0.01,0-0.01,0-0.02
					c0-0.01,0-0.02,0-0.03c0-0.01,0-0.02-0.01-0.03c-0.13-1.25-0.41-2.5-0.81-3.73c-0.4-1.24-0.91-2.46-1.53-3.67
					c-0.62-1.22-1.33-2.43-2.14-3.63c-0.8-1.18-1.69-2.36-2.65-3.52c-2.92-3.54-6.49-6.93-10.19-10.02
					c-3.72-3.11-7.62-5.93-11.14-8.31c-3.54-2.4-6.74-4.36-9.05-5.71c-2.33-1.36-3.75-2.13-3.75-2.13s-2.42,0.64-6.05,1.92
					c-3.7,1.3-8.69,3.26-13.76,5.91c-5.16,2.69-10.42,6.12-14.41,10.23c-4.06,4.21-6.8,9.14-6.7,14.7l0.88,91.07l59.79-1.81
					c-0.32,0.55-0.65,1.1-0.99,1.63c-0.34,0.53-0.7,1.05-1.06,1.55c-0.37,0.5-0.74,0.98-1.14,1.45c-0.39,0.47-0.79,0.92-1.21,1.35
					c-0.04,0.04-0.07,0.08-0.11,0.12c-0.05,0.04-0.08,0.08-0.12,0.12c-0.04,0.05-0.08,0.08-0.12,0.12
					c-0.03,0.04-0.07,0.08-0.11,0.13c-0.38,0.39-0.77,0.78-1.16,1.17c-0.4,0.38-0.8,0.76-1.21,1.14c-0.43,0.37-0.83,0.74-1.26,1.1
					c-0.43,0.37-0.86,0.73-1.31,1.07c-0.48,0.39-0.97,0.77-1.46,1.16c-0.5,0.39-1,0.77-1.51,1.16c-0.5,0.38-1.01,0.77-1.53,1.16
					c-0.52,0.39-1.03,0.78-1.56,1.16c-0.53,0.39-1.06,0.78-1.57,1.18c-0.52,0.4-1.05,0.81-1.57,1.22c-0.52,0.42-1.03,0.84-1.54,1.26
					c-0.51,0.43-1.02,0.86-1.53,1.3c-0.52,0.45-1.02,0.9-1.51,1.36c-0.51,0.47-1,0.95-1.49,1.44c-0.48,0.49-0.96,0.99-1.45,1.5
					c-0.47,0.51-0.96,1.04-1.41,1.58c-0.47,0.54-0.93,1.1-1.38,1.69c-0.44,0.59-0.87,1.2-1.27,1.83c-0.41,0.64-0.8,1.3-1.18,1.99
					c-0.39,0.68-0.75,1.39-1.1,2.13c-0.3,0.62-0.59,1.23-0.84,1.82c-0.26,0.59-0.5,1.17-0.72,1.72c-0.22,0.56-0.42,1.11-0.61,1.64
					c-0.18,0.53-0.35,1.04-0.49,1.55c-0.15,0.51-0.26,0.99-0.38,1.44c-0.11,0.46-0.2,0.9-0.28,1.32c-0.08,0.42-0.14,0.81-0.17,1.19
					c-0.06,0.37-0.08,0.73-0.1,1.07l0.04,0.71c0,0.26,0.03,0.51,0.06,0.72c0.04,0.22,0.07,0.42,0.14,0.6
					c0.05,0.17,0.12,0.33,0.21,0.46c0.08,0.13,0.18,0.24,0.29,0.33c0.03,0.05,0.09,0.09,0.13,0.11c0.04,0.03,0.09,0.06,0.14,0.08
					c0.05,0.02,0.1,0.04,0.16,0.05c0.06,0,0.11,0.01,0.17,0c0.01,0,0.02,0,0.02,0h0.01c0,0,0,0,0.01-0.01h0.01
					c0.11-0.01,0.2-0.04,0.32-0.08c0.1-0.04,0.22-0.09,0.33-0.16c0.12-0.07,0.24-0.15,0.35-0.25c0.13-0.1,0.26-0.21,0.39-0.33
					c0.5-0.44,1-0.87,1.51-1.29c0.5-0.42,1.03-0.82,1.54-1.23c0.51-0.4,1.04-0.79,1.55-1.17c0.52-0.37,1.05-0.74,1.58-1.1
					c0.5-0.33,0.99-0.66,1.5-0.98c0.5-0.33,1.01-0.62,1.52-0.93c0.51-0.3,1.02-0.6,1.53-0.88c0.52-0.28,1.04-0.55,1.57-0.82
					c1.07-0.55,2.14-1.08,3.21-1.6c1.07-0.53,2.13-1.03,3.19-1.52c1.07-0.49,2.12-0.97,3.17-1.44c1.04-0.46,2.1-0.91,3.14-1.36
					c1.05-0.44,2.08-0.88,3.1-1.32c1.04-0.44,2.05-0.87,3.06-1.31c1-0.44,2-0.89,3-1.33c0.98-0.44,1.96-0.88,2.94-1.32
					c0.96-0.44,1.92-0.9,2.84-1.4c0.94-0.48,1.83-0.99,2.71-1.53c0.88-0.54,1.75-1.1,2.59-1.68c0.83-0.57,1.65-1.18,2.44-1.81
					c0.79-0.63,1.56-1.29,2.3-1.99c0.73-0.69,1.44-1.43,2.14-2.18c0.68-0.77,1.32-1.55,1.96-2.37c0.62-0.82,1.23-1.67,1.81-2.56
					c0.57-0.89,1.1-1.83,1.61-2.83c0.49-0.99,0.94-2.04,1.36-3.15c0.42-1.1,0.8-2.26,1.13-3.48c0.35-1.22,0.64-2.48,0.91-3.8
					l7.93-0.08L364.96,310.77L364.96,310.77z"/>
				<path id="XMLID_215_" class="st1" d="M191.27,216.09c-0.12-0.44-0.27-0.87-0.45-1.3c-0.03-0.08-0.07-0.17-0.1-0.25
					c-0.03-0.07-0.06-0.16-0.1-0.24c-0.04-0.08-0.08-0.16-0.12-0.24c-0.03-0.09-0.07-0.16-0.11-0.25c-0.16-0.33-0.34-0.66-0.53-0.98
					c-0.19-0.33-0.39-0.64-0.6-0.95c-0.22-0.31-0.44-0.61-0.69-0.91c-0.24-0.29-0.49-0.59-0.76-0.87c-0.33-0.36-0.67-0.69-1.03-1.02
					c-0.35-0.32-0.73-0.63-1.11-0.92c-0.39-0.29-0.79-0.56-1.22-0.82c-0.42-0.26-0.85-0.5-1.3-0.73c-0.45-0.23-0.92-0.44-1.39-0.62
					c-0.47-0.19-0.97-0.35-1.46-0.5c-0.51-0.14-1.01-0.26-1.54-0.36c-0.52-0.1-1.07-0.18-1.62-0.23l-20.8-2.25l-7.55,71.67
					l-26.71-0.81l-8.55-0.27l9.57-67.6l0.92-6.48l-23.36-2.52c-0.06,0-0.13-0.01-0.19-0.01c-0.06,0-0.12-0.01-0.18-0.01
					c-0.06-0.01-0.12-0.01-0.18-0.02c-0.07,0-0.13-0.01-0.19-0.01c-0.58-0.06-1.15-0.08-1.72-0.08s-1.15,0.01-1.72,0.05
					c-0.57,0.03-1.13,0.09-1.68,0.17c-0.57,0.07-1.12,0.18-1.68,0.29c-0.61,0.13-1.2,0.29-1.78,0.46c-0.57,0.17-1.14,0.36-1.69,0.58
					c-0.55,0.22-1.09,0.46-1.61,0.72c-0.53,0.26-1.05,0.53-1.54,0.84c-0.5,0.29-0.97,0.62-1.43,0.96c-0.46,0.34-0.89,0.69-1.3,1.05
					c-0.42,0.36-0.82,0.75-1.2,1.14c-0.38,0.41-0.73,0.82-1.07,1.25c-0.35,0.43-0.66,0.87-0.95,1.33c-0.27,0.45-0.54,0.91-0.74,1.4
					c-0.22,0.48-0.41,0.97-0.57,1.49c-0.16,0.51-0.29,1.03-0.39,1.57l-16.26,85.33c-0.12,0.64-0.2,1.27-0.25,1.89
					c-0.05,0.62-0.05,1.23-0.03,1.84c0.03,0.6,0.11,1.2,0.21,1.77c0.1,0.58,0.25,1.16,0.44,1.71c0.18,0.55,0.4,1.1,0.63,1.63
					c0.24,0.53,0.51,1.04,0.8,1.55c0.29,0.5,0.62,0.98,0.98,1.45c0.35,0.47,0.75,0.91,1.16,1.36c0.35,0.37,0.72,0.72,1.1,1.06
					c0.39,0.33,0.8,0.64,1.22,0.95c0.43,0.3,0.88,0.58,1.33,0.85c0.47,0.27,0.96,0.51,1.45,0.74c0.09,0.04,0.18,0.08,0.27,0.12
					c0.1,0.03,0.18,0.07,0.27,0.12c0.1,0.04,0.18,0.08,0.28,0.11c0.08,0.03,0.18,0.07,0.27,0.11c0.62,0.24,1.25,0.45,1.9,0.63
					c0.65,0.18,1.32,0.33,2.01,0.44c0.68,0.12,1.39,0.2,2.1,0.25c0.71,0.05,1.45,0.08,2.2,0.07l87.45-0.93c0.07,0,0.13,0,0.18-0.01
					c0.06,0,0.12,0,0.18,0c0.06,0,0.11,0,0.18,0c0.07-0.01,0.11-0.01,0.17-0.01c0.55-0.02,1.1-0.07,1.64-0.14
					c0.54-0.08,1.07-0.17,1.59-0.28c0.52-0.12,1.05-0.26,1.54-0.42c0.5-0.16,1-0.34,1.48-0.55c0.54-0.22,1.07-0.46,1.59-0.74
					c0.51-0.27,1-0.55,1.48-0.87c0.47-0.31,0.94-0.64,1.39-0.99c0.44-0.35,0.87-0.72,1.29-1.12c0.42-0.39,0.81-0.8,1.18-1.21
					c0.37-0.42,0.72-0.85,1.06-1.28c0.34-0.44,0.65-0.9,0.94-1.37c0.3-0.47,0.57-0.95,0.83-1.44c0.25-0.5,0.48-0.99,0.68-1.51
					c0.2-0.51,0.38-1.03,0.52-1.56c0.15-0.52,0.26-1.06,0.36-1.61c0.09-0.55,0.15-1.1,0.2-1.66l4.84-75.86
					c0.04-0.48,0.05-0.96,0.02-1.43c-0.01-0.47-0.07-0.93-0.14-1.39C191.49,216.92,191.42,216.59,191.27,216.09z"/>
				<path id="XMLID_214_" class="st1" d="M124.5,172.17c0.11,0.53,0.28,1.07,0.47,1.59c0.18,0.53,0.41,1.05,0.66,1.55
					c0.24,0.51,0.51,0.99,0.81,1.47c0.29,0.48,0.63,0.95,0.97,1.41c0.35,0.45,0.74,0.9,1.15,1.33c0.29,0.29,0.59,0.58,0.9,0.87
					c0.32,0.28,0.64,0.56,0.98,0.83c0.33,0.27,0.68,0.53,1.04,0.79c0.36,0.25,0.73,0.5,1.1,0.73c0.16,0.09,0.32,0.2,0.48,0.29
					c0.16,0.1,0.32,0.19,0.49,0.28c0.16,0.09,0.33,0.19,0.5,0.28c0.17,0.08,0.34,0.17,0.51,0.26c0.59,0.3,1.2,0.57,1.81,0.81
					c0.6,0.24,1.23,0.46,1.87,0.65c0.64,0.19,1.29,0.36,1.95,0.5c0.66,0.13,1.33,0.24,2.02,0.33c0.07,0.01,0.12,0.01,0.19,0.02
					c0.06,0.01,0.12,0.02,0.19,0.02c0.07,0.01,0.14,0.01,0.19,0.02c0.06,0.01,0.13,0.01,0.21,0.01c0.6,0.06,1.2,0.09,1.8,0.1
					c0.6,0,1.2-0.01,1.79-0.05c0.58-0.04,1.16-0.1,1.74-0.18c0.57-0.09,1.14-0.19,1.7-0.32c0.62-0.14,1.23-0.3,1.81-0.47
					c0.58-0.19,1.15-0.39,1.71-0.61c0.54-0.22,1.07-0.47,1.58-0.73c0.52-0.26,1-0.54,1.47-0.84c0.47-0.3,0.92-0.62,1.35-0.96
					c0.43-0.33,0.84-0.69,1.23-1.07c0.39-0.37,0.75-0.75,1.1-1.17c0.35-0.41,0.68-0.83,0.98-1.27c0.3-0.45,0.56-0.91,0.82-1.37
					c0.24-0.46,0.44-0.94,0.62-1.42c0.17-0.48,0.31-0.99,0.44-1.49c0.1-0.51,0.19-1.03,0.24-1.56c0.06-0.53,0.08-1.05,0.08-1.56
					c-0.02-0.52-0.06-1.04-0.14-1.56c-0.07-0.51-0.18-1.02-0.32-1.52c-0.14-0.51-0.32-1.01-0.53-1.52c-0.06-0.15-0.11-0.3-0.18-0.44
					c-0.06-0.15-0.12-0.29-0.19-0.44c-0.07-0.15-0.14-0.28-0.2-0.43c-0.08-0.15-0.15-0.28-0.22-0.42c-0.18-0.34-0.37-0.66-0.58-0.99
					c-0.2-0.32-0.42-0.63-0.64-0.94c-0.23-0.31-0.47-0.62-0.71-0.92c-0.25-0.29-0.52-0.58-0.79-0.87c-0.39-0.41-0.79-0.79-1.23-1.17
					c-0.43-0.38-0.87-0.74-1.34-1.08c-0.47-0.34-0.97-0.68-1.47-0.98c-0.5-0.32-1.04-0.62-1.6-0.9c-0.55-0.28-1.11-0.54-1.69-0.77
					c-0.59-0.24-1.17-0.46-1.78-0.64c-0.6-0.19-1.23-0.37-1.86-0.52c-0.64-0.15-1.28-0.28-1.93-0.39c-0.07-0.01-0.14-0.02-0.2-0.02
					c-0.06-0.01-0.12-0.02-0.19-0.04c-0.06,0-0.14-0.01-0.2-0.02c-0.06-0.01-0.14-0.01-0.19-0.02c-0.58-0.08-1.16-0.13-1.75-0.16
					c-0.57-0.04-1.16-0.05-1.73-0.04c-0.57,0.01-1.14,0.05-1.7,0.09c-0.56,0.06-1.13,0.12-1.67,0.22c-0.63,0.1-1.23,0.23-1.83,0.38
					c-0.58,0.14-1.17,0.31-1.73,0.5c-0.55,0.19-1.1,0.41-1.63,0.65c-0.52,0.23-1.04,0.5-1.52,0.78c-0.51,0.28-0.98,0.59-1.43,0.9
					c-0.47,0.32-0.89,0.66-1.31,1.02c-0.41,0.36-0.8,0.74-1.16,1.14c-0.38,0.4-0.73,0.83-1.06,1.27c-0.33,0.44-0.63,0.9-0.89,1.35
					c-0.26,0.47-0.5,0.96-0.71,1.45c-0.2,0.49-0.37,0.99-0.52,1.51c-0.14,0.52-0.26,1.05-0.33,1.59c-0.08,0.55-0.12,1.1-0.15,1.63
					c0,0.55,0.01,1.09,0.07,1.63C124.27,171.09,124.36,171.63,124.5,172.17z"/>
				<path id="XMLID_213_" class="st1" d="M232.53,169.19c-0.05-0.01-0.1-0.01-0.14-0.02c-0.05,0-0.1-0.01-0.15-0.02
					c-0.06-0.01-0.1-0.01-0.14-0.02c-0.42-0.05-0.82-0.08-1.22-0.09c-0.4-0.01-0.79-0.01-1.17,0.02c-0.4,0.02-0.77,0.06-1.15,0.11
					c-0.37,0.05-0.74,0.13-1.1,0.21c-0.41,0.1-0.8,0.23-1.19,0.35c-0.38,0.14-0.75,0.28-1.12,0.44c-0.37,0.16-0.73,0.34-1.07,0.52
					c-0.34,0.2-0.68,0.41-1,0.63c-0.33,0.22-0.64,0.46-0.94,0.7c-0.29,0.26-0.57,0.53-0.82,0.81c-0.26,0.28-0.51,0.58-0.73,0.89
					c-0.23,0.31-0.44,0.64-0.63,0.98c-0.2,0.34-0.37,0.7-0.52,1.05c-0.15,0.37-0.28,0.74-0.38,1.13c-0.11,0.38-0.19,0.78-0.25,1.19
					c-0.04,0.4-0.09,0.82-0.1,1.25l-4.82,133.07l7.17-0.08l13.16-0.14c0.06,0,0.12,0,0.19,0c0.06,0,0.12,0,0.18,0
					c0.05-0.01,0.11-0.01,0.18-0.01c0.06,0,0.12,0,0.18-0.01c0.46-0.02,0.93-0.07,1.38-0.14c0.45-0.06,0.9-0.15,1.34-0.26
					c0.43-0.11,0.88-0.23,1.3-0.38c0.42-0.14,0.84-0.31,1.25-0.5c0.47-0.21,0.91-0.44,1.35-0.69c0.43-0.24,0.84-0.52,1.24-0.8
					c0.4-0.28,0.78-0.6,1.14-0.92c0.36-0.33,0.7-0.67,1.03-1.04c0.33-0.37,0.64-0.75,0.94-1.14c0.29-0.39,0.56-0.78,0.83-1.19
					c0.25-0.41,0.5-0.83,0.72-1.26c0.24-0.44,0.44-0.88,0.64-1.33c0.2-0.46,0.36-0.92,0.51-1.4c0.15-0.48,0.26-0.96,0.36-1.46
					c0.09-0.49,0.17-0.99,0.22-1.5c0.04-0.52,0.06-1.03,0.06-1.57l0.08-119.57l0.01-5.19l-16.69-2.61
					C232.62,169.2,232.57,169.19,232.53,169.19z"/>
				<path id="XMLID_212_" class="st1" d="M416.9,339.85c-0.09-0.54-0.2-1.08-0.32-1.61c-0.13-0.52-0.27-1.04-0.43-1.54
					c-0.16-0.51-0.34-1.01-0.54-1.5c-0.2-0.49-0.42-0.97-0.65-1.44c-0.07-0.14-0.15-0.28-0.22-0.42c-0.07-0.14-0.14-0.27-0.22-0.41
					c-0.07-0.14-0.15-0.27-0.23-0.4c-0.07-0.14-0.15-0.27-0.23-0.39c-0.19-0.3-0.37-0.6-0.57-0.89c-0.19-0.28-0.39-0.56-0.59-0.83
					c-0.21-0.27-0.42-0.53-0.64-0.79c-0.2-0.26-0.43-0.5-0.65-0.73c-0.32-0.35-0.66-0.67-0.99-0.98c-0.34-0.31-0.69-0.6-1.05-0.87
					c-0.35-0.27-0.73-0.52-1.09-0.76c-0.38-0.24-0.76-0.45-1.15-0.65c-0.4-0.19-0.8-0.36-1.19-0.51c-0.41-0.14-0.8-0.26-1.21-0.35
					c-0.4-0.09-0.8-0.16-1.21-0.2c-0.42-0.04-0.82-0.06-1.23-0.04c-0.05,0-0.08,0-0.12,0c-0.03,0.01-0.08,0.01-0.12,0.01
					c-0.04,0-0.08,0.01-0.12,0.01c-0.03,0-0.07,0.01-0.11,0.01c-0.37,0.03-0.71,0.08-1.07,0.15c-0.35,0.08-0.69,0.17-1.02,0.28
					c-0.33,0.11-0.65,0.25-0.97,0.41c-0.32,0.16-0.63,0.34-0.93,0.54c-0.33,0.23-0.65,0.47-0.96,0.73c-0.3,0.27-0.6,0.54-0.88,0.84
					c-0.28,0.3-0.55,0.61-0.8,0.95c-0.26,0.33-0.5,0.68-0.73,1.06c-0.22,0.37-0.44,0.75-0.63,1.16c-0.19,0.41-0.37,0.82-0.53,1.27
					c-0.16,0.44-0.3,0.89-0.43,1.36c-0.12,0.46-0.23,0.95-0.33,1.45c-0.07,0.42-0.13,0.83-0.18,1.25c-0.04,0.43-0.07,0.85-0.1,1.29
					c-0.01,0.44-0.01,0.88-0.01,1.32c0.01,0.45,0.03,0.9,0.08,1.35c0.01,0.1,0.02,0.2,0.03,0.3c0.01,0.09,0.02,0.19,0.03,0.3
					c0.01,0.09,0.02,0.19,0.03,0.3c0.02,0.1,0.03,0.2,0.05,0.3c0.07,0.55,0.17,1.12,0.28,1.67c0.11,0.54,0.25,1.08,0.4,1.61
					c0.16,0.55,0.33,1.06,0.52,1.58c0.19,0.52,0.4,1.02,0.63,1.53c0.06,0.09,0.1,0.19,0.14,0.28c0.05,0.1,0.1,0.19,0.14,0.29
					c0.06,0.09,0.1,0.18,0.15,0.27c0.04,0.1,0.1,0.18,0.15,0.27c0.2,0.38,0.41,0.75,0.64,1.11c0.22,0.35,0.45,0.7,0.7,1.04
					c0.24,0.33,0.48,0.65,0.73,0.96c0.26,0.31,0.52,0.61,0.79,0.89c0.24,0.26,0.49,0.51,0.74,0.74c0.24,0.24,0.51,0.46,0.75,0.67
					c0.26,0.21,0.52,0.41,0.79,0.6c0.27,0.19,0.54,0.37,0.81,0.54c0.11,0.06,0.22,0.13,0.33,0.2c0.11,0.06,0.23,0.12,0.35,0.19
					c0.11,0.06,0.22,0.11,0.35,0.17c0.11,0.06,0.22,0.11,0.34,0.16c0.41,0.19,0.81,0.35,1.22,0.48c0.4,0.12,0.81,0.24,1.23,0.3
					c0.41,0.08,0.83,0.13,1.24,0.15c0.41,0.02,0.83,0.01,1.25-0.02c0.05,0,0.09,0,0.13-0.01c0.04-0.01,0.09-0.01,0.14-0.02
					c0.04,0,0.09-0.01,0.12-0.01c0.05-0.01,0.09-0.01,0.13-0.02c0.36-0.05,0.73-0.12,1.09-0.21c0.35-0.09,0.69-0.2,1.03-0.33
					c0.33-0.13,0.66-0.29,0.99-0.47c0.32-0.17,0.63-0.36,0.93-0.59c0.33-0.24,0.66-0.5,0.96-0.78c0.31-0.27,0.6-0.57,0.87-0.88
					c0.28-0.32,0.53-0.65,0.77-1c0.25-0.35,0.47-0.72,0.69-1.11c0.21-0.38,0.41-0.79,0.59-1.21c0.18-0.42,0.34-0.85,0.47-1.3
					c0.15-0.44,0.27-0.91,0.38-1.38c0.11-0.47,0.21-0.95,0.29-1.45c0.08-0.5,0.14-1,0.18-1.52c0.03-0.51,0.06-1.02,0.06-1.55
					c0-0.52-0.03-1.05-0.08-1.58C417.05,340.93,416.99,340.39,416.9,339.85z"/>
				<path id="XMLID_211_" class="st1" d="M389.35,341.36c-0.08-0.57-0.18-1.12-0.29-1.66c-0.11-0.55-0.25-1.09-0.41-1.62
					c-0.16-0.53-0.33-1.05-0.54-1.56c-0.19-0.51-0.4-1.02-0.65-1.52c-0.07-0.15-0.14-0.29-0.22-0.44c-0.07-0.14-0.14-0.29-0.23-0.43
					c-0.07-0.15-0.15-0.28-0.23-0.42c-0.08-0.13-0.16-0.27-0.24-0.41c-0.18-0.31-0.39-0.62-0.57-0.91c-0.21-0.3-0.41-0.59-0.62-0.87
					c-0.21-0.28-0.42-0.55-0.64-0.82c-0.22-0.27-0.44-0.52-0.69-0.78c-0.34-0.34-0.68-0.68-1.03-1c-0.36-0.32-0.72-0.62-1.1-0.9
					c-0.38-0.28-0.77-0.53-1.15-0.78c-0.4-0.24-0.8-0.47-1.21-0.67c-0.41-0.21-0.82-0.38-1.25-0.53c-0.43-0.15-0.84-0.28-1.27-0.37
					c-0.45-0.1-0.87-0.16-1.31-0.2c-0.44-0.04-0.88-0.06-1.31-0.04c-0.05,0.01-0.1,0.01-0.15,0.01c-0.05,0-0.1,0.01-0.15,0.01
					c-0.04,0.01-0.1,0.01-0.15,0.01c-0.05,0-0.1,0-0.15,0.01c-0.38,0.03-0.77,0.08-1.14,0.16c-0.37,0.08-0.74,0.18-1.12,0.3
					c-0.35,0.12-0.71,0.26-1.06,0.43c-0.35,0.17-0.68,0.36-1.03,0.56c-0.37,0.24-0.74,0.48-1.09,0.76c-0.34,0.27-0.68,0.56-1,0.87
					c-0.32,0.31-0.62,0.64-0.91,0.99c-0.29,0.35-0.57,0.73-0.82,1.11c-0.26,0.39-0.5,0.8-0.73,1.23c-0.23,0.42-0.44,0.86-0.62,1.31
					c-0.2,0.45-0.36,0.94-0.52,1.42c-0.15,0.48-0.29,1-0.4,1.52c-0.12,0.52-0.21,1.05-0.29,1.59c-0.07,0.54-0.12,1.1-0.15,1.64
					c-0.02,0.56-0.03,1.12-0.01,1.7c0.02,0.57,0.07,1.16,0.13,1.74c0.06,0.59,0.14,1.17,0.25,1.74c0.1,0.57,0.23,1.13,0.38,1.69
					c0.15,0.55,0.33,1.09,0.51,1.63c0.19,0.53,0.41,1.07,0.64,1.58c0.24,0.52,0.48,1.02,0.76,1.5c0.26,0.48,0.54,0.95,0.83,1.39
					c0.29,0.44,0.61,0.87,0.94,1.28c0.33,0.42,0.66,0.81,1.02,1.18c0.25,0.26,0.51,0.51,0.76,0.75c0.26,0.24,0.53,0.47,0.8,0.69
					c0.26,0.22,0.54,0.42,0.82,0.62c0.28,0.2,0.57,0.38,0.86,0.55c0.13,0.07,0.26,0.15,0.38,0.21c0.12,0.07,0.25,0.14,0.37,0.2
					c0.14,0.07,0.27,0.13,0.39,0.19c0.13,0.07,0.26,0.12,0.38,0.18c0.45,0.19,0.89,0.35,1.34,0.48c0.45,0.14,0.89,0.24,1.34,0.32
					c0.44,0.08,0.89,0.13,1.35,0.15c0.46,0.02,0.91,0.01,1.37-0.03c0.03,0,0.09-0.01,0.13-0.01c0.04,0,0.09,0,0.13-0.01
					c0.05-0.01,0.09-0.01,0.14-0.01c0.05-0.01,0.09-0.02,0.14-0.02c0.4-0.06,0.8-0.13,1.19-0.22c0.37-0.1,0.75-0.22,1.12-0.36
					c0.37-0.14,0.73-0.3,1.08-0.49c0.34-0.18,0.68-0.38,1-0.61c0.36-0.25,0.72-0.52,1.06-0.81c0.34-0.29,0.65-0.6,0.96-0.92
					c0.3-0.34,0.59-0.68,0.87-1.05c0.26-0.37,0.53-0.76,0.78-1.16c0.23-0.41,0.46-0.83,0.66-1.27c0.21-0.43,0.41-0.89,0.57-1.34
					c0.17-0.46,0.33-0.94,0.47-1.43c0.14-0.49,0.26-1,0.37-1.52c0.1-0.52,0.18-1.05,0.24-1.59c0.06-0.53,0.1-1.07,0.12-1.61
					c0-0.54,0-1.09-0.03-1.65C389.48,342.48,389.43,341.92,389.35,341.36z"/>
				<path id="XMLID_210_" class="st1" d="M475.73,300.56c-0.03-0.36-0.07-0.73-0.14-1.11c-0.05-0.37-0.14-0.75-0.22-1.14
					l-12.09-52.97c-0.08-0.35-0.18-0.69-0.27-1.03c-0.11-0.33-0.22-0.67-0.33-0.98c-0.13-0.33-0.26-0.65-0.41-0.96
					c-0.14-0.32-0.29-0.63-0.47-0.94c-0.03-0.06-0.06-0.11-0.09-0.17c-0.03-0.06-0.07-0.12-0.1-0.17c-0.03-0.06-0.06-0.11-0.1-0.17
					c-0.03-0.06-0.06-0.1-0.09-0.17c-0.15-0.23-0.3-0.47-0.45-0.69c-0.16-0.23-0.31-0.45-0.47-0.67c-0.17-0.22-0.33-0.43-0.5-0.64
					c-0.16-0.21-0.34-0.42-0.52-0.62c-0.22-0.25-0.45-0.48-0.68-0.7c-0.24-0.21-0.46-0.43-0.71-0.63c-0.24-0.19-0.47-0.38-0.73-0.55
					c-0.24-0.18-0.49-0.34-0.74-0.49c-0.25-0.15-0.52-0.29-0.78-0.41c-0.26-0.12-0.51-0.24-0.78-0.32
					c-0.26-0.09-0.52-0.17-0.79-0.24c-0.25-0.06-0.52-0.1-0.79-0.13l-16.08-1.73c-0.31-0.04-0.62-0.09-0.95-0.13
					c-0.32-0.05-0.66-0.09-0.99-0.14c-0.36-0.04-0.71-0.09-1.06-0.13c-0.35-0.04-0.73-0.08-1.1-0.12l-2.36-0.25
					c-0.06,0-0.13,0-0.19,0c-0.06,0-0.13,0-0.19,0c-0.07,0-0.14,0-0.2,0c-0.07-0.01-0.14-0.01-0.2-0.01
					c-0.07-0.01-0.13-0.01-0.18-0.01c-0.06-0.01-0.12-0.01-0.17-0.02c-0.06-0.01-0.12-0.01-0.17-0.02c-0.07,0-0.12,0-0.18-0.01
					c-0.5-0.06-1.01-0.11-1.51-0.18c-0.52-0.06-1.01-0.12-1.53-0.2c-0.51-0.07-1.03-0.14-1.54-0.22c-0.51-0.08-1.02-0.15-1.54-0.24
					c-0.66-0.1-1.33-0.21-1.98-0.33c-0.65-0.11-1.32-0.24-1.96-0.38c-0.66-0.13-1.31-0.28-1.96-0.43c-0.65-0.16-1.29-0.33-1.94-0.5
					c-0.65-0.17-1.27-0.36-1.89-0.57c-0.6-0.21-1.2-0.42-1.78-0.66c-0.58-0.23-1.14-0.47-1.69-0.74c-0.54-0.26-1.07-0.55-1.59-0.84
					c-0.04-0.03-0.11-0.07-0.14-0.09c-0.06-0.03-0.11-0.05-0.15-0.07c-0.06-0.03-0.1-0.04-0.14-0.05c-0.04-0.02-0.08-0.03-0.12-0.04
					h-0.01H408l0,0h-0.01c-0.1,0-0.18,0.02-0.26,0.06c-0.06,0.05-0.12,0.11-0.16,0.2c-0.05,0.09-0.07,0.21-0.08,0.35
					c0,0.15,0,0.31,0.01,0.51c0,0.05,0,0.12,0,0.17c0.01,0.06,0.02,0.12,0.02,0.18c0,0.07,0.01,0.12,0.01,0.18
					c0.01,0.07,0.02,0.12,0.03,0.19c0.03,0.26,0.1,0.53,0.18,0.82c0.07,0.29,0.17,0.61,0.28,0.93c0.11,0.33,0.24,0.66,0.38,1.03
					c0.15,0.36,0.32,0.74,0.5,1.13c0.23,0.51,0.48,1.02,0.75,1.57c0.27,0.54,0.57,1.09,0.89,1.66c0.32,0.57,0.67,1.15,1.04,1.76
					c0.37,0.6,0.77,1.21,1.18,1.85c0.42,0.62,0.86,1.26,1.32,1.88c0.46,0.62,0.95,1.23,1.45,1.84c0.51,0.61,1.03,1.22,1.57,1.81
					c0.55,0.6,1.12,1.19,1.71,1.77c0.08,0.08,0.17,0.17,0.25,0.25c0.09,0.09,0.17,0.16,0.25,0.25c0.09,0.08,0.17,0.17,0.25,0.24
					c0.1,0.08,0.17,0.17,0.27,0.24c0.58,0.54,1.17,1.06,1.77,1.57c0.61,0.5,1.23,0.98,1.87,1.45c0.64,0.47,1.29,0.92,1.96,1.35
					c0.68,0.44,1.36,0.86,2.07,1.26c0.81,0.46,1.63,0.88,2.48,1.25c0.85,0.37,1.7,0.69,2.59,0.98c0.88,0.28,1.78,0.51,2.7,0.7
					c0.91,0.19,1.84,0.34,2.79,0.43l10.33,0.74l0.98,4.7l4.58,21.8l-38.71-1.17l2.63,15.4c0.06,0.42,0.15,0.84,0.26,1.24
					c0.09,0.41,0.2,0.81,0.34,1.2c0.12,0.4,0.26,0.79,0.42,1.16c0.16,0.38,0.32,0.75,0.51,1.12c0.18,0.36,0.37,0.72,0.58,1.06
					c0.2,0.35,0.41,0.68,0.63,1c0.22,0.33,0.46,0.64,0.7,0.95c0.24,0.3,0.49,0.6,0.75,0.88c0.21,0.24,0.44,0.47,0.68,0.69
					c0.23,0.23,0.46,0.43,0.7,0.63c0.25,0.2,0.48,0.39,0.74,0.56c0.25,0.18,0.5,0.35,0.75,0.5c0.05,0.02,0.09,0.05,0.13,0.08
					c0.05,0.02,0.08,0.05,0.12,0.08c0.05,0.02,0.1,0.04,0.14,0.07c0.04,0.02,0.08,0.04,0.12,0.06c0.3,0.16,0.62,0.3,0.91,0.43
					c0.31,0.11,0.62,0.21,0.94,0.29c0.31,0.07,0.62,0.13,0.94,0.16c0.31,0.04,0.63,0.06,0.94,0.05l40.83-0.43c0.03,0,0.06,0,0.08,0
					c0.02,0,0.06,0,0.08,0c0.03,0,0.06,0,0.08-0.01c0.03,0,0.04,0,0.07,0c0.25-0.01,0.5-0.05,0.72-0.1
					c0.23-0.04,0.46-0.11,0.67-0.18c0.21-0.09,0.42-0.17,0.62-0.28c0.21-0.11,0.39-0.23,0.58-0.36c0.2-0.17,0.4-0.32,0.58-0.5
					c0.18-0.19,0.36-0.38,0.51-0.59c0.17-0.21,0.31-0.43,0.46-0.67c0.14-0.24,0.26-0.49,0.38-0.76c0.12-0.27,0.22-0.53,0.32-0.82
					c0.1-0.28,0.18-0.57,0.26-0.87c0.07-0.29,0.13-0.6,0.17-0.92c0.06-0.32,0.09-0.64,0.12-0.97c0.03-0.34,0.04-0.68,0.04-1.02
					C475.78,301.27,475.76,300.92,475.73,300.56z"/>
			</g>
			<g id="XMLID_196_">
				<g id="XMLID_197_" class="st2">
					<g id="XMLID_198_">
						<g id="XMLID_199_">
							
								<radialGradient id="XMLID_00000028302148150812280600000017146253136842164915_" cx="25.6379" cy="312.4815" r="457.008" gradientTransform="matrix(0.9997 0 0 0.9997 0.0467 -0.0914)" gradientUnits="userSpaceOnUse">
								<stop  offset="0" style="stop-color:#009DC1"/>
								<stop  offset="0.5527" style="stop-color:#00BDD5"/>
								<stop  offset="1" style="stop-color:#009DC1"/>
							</radialGradient>
							<path id="XMLID_206_" style="fill:url(#XMLID_00000028302148150812280600000017146253136842164915_);" d="M89.75,186.63
								c-0.61-0.05-1.22-0.07-1.82-0.07c-0.6-0.01-1.19,0.01-1.79,0.06c-0.59,0.04-1.18,0.09-1.78,0.18
								c-0.58,0.08-1.17,0.18-1.75,0.31c-0.64,0.13-1.26,0.3-1.86,0.48c-0.62,0.19-1.21,0.39-1.79,0.62
								c-0.58,0.23-1.14,0.48-1.7,0.75c-0.55,0.27-1.09,0.57-1.62,0.88c-0.51,0.32-1.01,0.66-1.49,1.01
								c-0.48,0.36-0.94,0.73-1.38,1.12c-0.43,0.39-0.86,0.79-1.25,1.2c-0.39,0.42-0.78,0.86-1.13,1.3
								c-0.36,0.46-0.69,0.92-0.98,1.4c-0.3,0.48-0.56,0.97-0.8,1.47c-0.23,0.51-0.44,1.03-0.6,1.57c-0.17,0.53-0.3,1.09-0.41,1.65
								l-17.09,89.64c-0.12,0.67-0.21,1.34-0.26,1.99c-0.05,0.65-0.06,1.3-0.03,1.93c0.03,0.63,0.1,1.26,0.21,1.87
								c0.11,0.61,0.26,1.21,0.47,1.79c0.19,0.58,0.41,1.16,0.65,1.71c0.25,0.56,0.53,1.1,0.85,1.62c0.32,0.53,0.65,1.03,1.02,1.53
								c0.37,0.48,0.78,0.96,1.23,1.42c0.36,0.39,0.74,0.76,1.16,1.11c0.4,0.35,0.83,0.69,1.27,1c0.45,0.32,0.91,0.62,1.4,0.9
								c0.48,0.28,0.99,0.54,1.52,0.78c0.09,0.05,0.18,0.08,0.27,0.13c0.1,0.05,0.19,0.08,0.29,0.12c0.1,0.05,0.19,0.09,0.28,0.12
								c0.1,0.04,0.2,0.08,0.3,0.12c0.64,0.26,1.31,0.47,2,0.66c0.69,0.19,1.39,0.35,2.11,0.47c0.71,0.12,1.45,0.21,2.2,0.26
								c0.75,0.06,1.53,0.08,2.31,0.07l91.86-0.97c0.06,0,0.13,0,0.19,0c0.06,0,0.13,0,0.18-0.01c0.06,0,0.12,0,0.18,0
								c0.06-0.01,0.13-0.01,0.18-0.01c0.59-0.03,1.16-0.07,1.73-0.16c0.56-0.07,1.12-0.18,1.67-0.3c0.55-0.12,1.08-0.27,1.62-0.44
								c0.52-0.17,1.05-0.36,1.55-0.58c0.58-0.24,1.13-0.5,1.67-0.78c0.54-0.28,1.05-0.58,1.55-0.91c0.5-0.33,0.99-0.68,1.46-1.05
								c0.47-0.36,0.91-0.76,1.36-1.16c0.43-0.41,0.84-0.83,1.23-1.27c0.4-0.43,0.77-0.88,1.13-1.35c0.35-0.46,0.68-0.94,0.99-1.43
								c0.3-0.5,0.59-1,0.86-1.52c0.28-0.52,0.51-1.04,0.73-1.58c0.22-0.53,0.39-1.08,0.54-1.63c0.16-0.56,0.28-1.12,0.38-1.7
								c0.09-0.57,0.16-1.16,0.2-1.75l5.1-79.68c0.03-0.51,0.04-1.01,0.01-1.5c-0.01-0.49-0.06-0.98-0.15-1.45
								c-0.08-0.48-0.18-0.95-0.31-1.41c-0.12-0.47-0.29-0.92-0.46-1.37c-0.03-0.09-0.07-0.17-0.11-0.26
								c-0.03-0.08-0.07-0.17-0.1-0.26c-0.05-0.08-0.08-0.17-0.13-0.26c-0.03-0.08-0.08-0.16-0.11-0.24
								c-0.18-0.36-0.36-0.7-0.56-1.04c-0.2-0.34-0.41-0.67-0.64-1c-0.23-0.32-0.46-0.64-0.71-0.96c-0.25-0.3-0.52-0.62-0.79-0.91
								c-0.35-0.37-0.72-0.73-1.09-1.07c-0.37-0.34-0.76-0.65-1.17-0.96c-0.41-0.3-0.84-0.59-1.27-0.86
								c-0.44-0.27-0.9-0.52-1.38-0.77c-0.47-0.25-0.96-0.46-1.46-0.66c-0.5-0.19-1.01-0.36-1.54-0.51
								c-0.53-0.16-1.06-0.28-1.61-0.39c-0.56-0.1-1.12-0.18-1.7-0.24L149,193.01l-7.92,75.28l-28.06-0.86l-8.98-0.27l10.06-71.02
								l0.97-6.8l-24.56-2.64c-0.06-0.01-0.12-0.01-0.19-0.02c-0.07-0.01-0.14-0.01-0.19-0.02c-0.07-0.01-0.13-0.01-0.2-0.01
								C89.87,186.64,89.81,186.63,89.75,186.63 M137.39,142.56c-0.62-0.08-1.23-0.13-1.84-0.17c-0.61-0.03-1.22-0.04-1.81-0.03
								c-0.61,0-1.21,0.03-1.8,0.08c-0.59,0.06-1.17,0.14-1.76,0.23c-0.65,0.11-1.29,0.24-1.92,0.39c-0.61,0.16-1.22,0.34-1.8,0.54
								c-0.59,0.2-1.17,0.42-1.72,0.66c-0.55,0.26-1.09,0.53-1.62,0.82c-0.52,0.3-1.02,0.61-1.49,0.94
								c-0.48,0.34-0.95,0.71-1.37,1.08c-0.43,0.38-0.85,0.78-1.23,1.2c-0.39,0.42-0.76,0.87-1.1,1.33
								c-0.35,0.46-0.65,0.94-0.94,1.43c-0.27,0.49-0.53,0.99-0.73,1.52c-0.21,0.52-0.4,1.05-0.55,1.6
								c-0.15,0.55-0.27,1.11-0.35,1.68c-0.09,0.58-0.14,1.14-0.15,1.71c-0.02,0.57,0.01,1.14,0.07,1.7
								c0.05,0.56,0.15,1.13,0.27,1.69c0.13,0.56,0.3,1.13,0.5,1.68c0.19,0.56,0.44,1.09,0.69,1.62c0.26,0.53,0.55,1.05,0.87,1.55
								c0.31,0.5,0.66,0.99,1.04,1.47c0.36,0.48,0.76,0.95,1.18,1.4c0.31,0.32,0.62,0.62,0.95,0.92c0.34,0.3,0.67,0.59,1.02,0.87
								c0.36,0.28,0.73,0.56,1.09,0.82c0.37,0.26,0.78,0.53,1.17,0.78c0.16,0.1,0.33,0.21,0.5,0.3c0.17,0.1,0.34,0.2,0.51,0.3
								c0.18,0.1,0.35,0.19,0.52,0.29c0.18,0.09,0.36,0.18,0.53,0.28c0.62,0.31,1.25,0.6,1.9,0.85c0.64,0.26,1.3,0.48,1.97,0.69
								c0.66,0.2,1.35,0.37,2.04,0.51c0.7,0.15,1.41,0.26,2.12,0.35c0.07,0.01,0.14,0.02,0.21,0.03c0.07,0,0.14,0.02,0.21,0.02
								c0.07,0.01,0.14,0.02,0.2,0.02c0.07,0.01,0.13,0.01,0.2,0.03c0.64,0.06,1.28,0.09,1.91,0.09c0.63,0.01,1.26,0,1.87-0.03
								c0.61-0.05,1.23-0.11,1.83-0.2c0.6-0.08,1.2-0.19,1.79-0.33c0.66-0.15,1.3-0.32,1.9-0.51c0.62-0.19,1.21-0.41,1.79-0.64
								c0.57-0.24,1.13-0.48,1.67-0.77c0.54-0.28,1.06-0.58,1.55-0.9c0.49-0.31,0.96-0.65,1.42-1c0.44-0.35,0.88-0.73,1.29-1.12
								c0.4-0.39,0.79-0.8,1.15-1.23c0.36-0.42,0.7-0.87,1.03-1.34c0.31-0.47,0.61-0.95,0.86-1.43c0.25-0.48,0.46-0.99,0.65-1.5
								c0.19-0.5,0.34-1.03,0.46-1.56c0.12-0.53,0.2-1.08,0.26-1.63c0.06-0.55,0.08-1.1,0.07-1.66c-0.01-0.55-0.04-1.08-0.12-1.63
								c-0.08-0.53-0.19-1.07-0.34-1.6c-0.15-0.53-0.32-1.06-0.54-1.58c-0.07-0.16-0.13-0.31-0.2-0.47
								c-0.07-0.15-0.13-0.3-0.21-0.45c-0.07-0.15-0.14-0.3-0.22-0.46c-0.07-0.15-0.15-0.29-0.23-0.44
								c-0.19-0.35-0.4-0.69-0.61-1.03c-0.21-0.35-0.43-0.66-0.67-0.99c-0.25-0.33-0.49-0.65-0.75-0.96
								c-0.26-0.32-0.53-0.62-0.82-0.92c-0.42-0.42-0.85-0.83-1.29-1.23c-0.44-0.39-0.92-0.77-1.41-1.13
								c-0.51-0.37-1.02-0.71-1.55-1.04c-0.53-0.34-1.09-0.65-1.68-0.94c-0.57-0.3-1.17-0.57-1.78-0.82
								c-0.6-0.25-1.23-0.48-1.86-0.68c-0.64-0.19-1.29-0.38-1.95-0.54c-0.66-0.16-1.34-0.3-2.03-0.41
								c-0.06-0.01-0.14-0.02-0.21-0.03c-0.07-0.01-0.14-0.02-0.2-0.03c-0.07-0.01-0.14-0.02-0.2-0.02
								C137.52,142.58,137.45,142.57,137.39,142.56"/>
							
								<radialGradient id="XMLID_00000011030721737278916540000004955931105715829179_" cx="25.654" cy="312.4768" r="456.9585" gradientTransform="matrix(0.9997 0 0 0.9997 0.0467 -0.0914)" gradientUnits="userSpaceOnUse">
								<stop  offset="0" style="stop-color:#009DC1"/>
								<stop  offset="0.5527" style="stop-color:#00BDD5"/>
								<stop  offset="1" style="stop-color:#009DC1"/>
							</radialGradient>
							<path id="XMLID_205_" style="fill:url(#XMLID_00000011030721737278916540000004955931105715829179_);" d="M228.58,157.79
								c-0.43-0.05-0.85-0.08-1.28-0.1c-0.41,0-0.82,0-1.22,0.02c-0.41,0.02-0.81,0.06-1.19,0.12c-0.4,0.06-0.78,0.13-1.16,0.23
								c-0.42,0.11-0.84,0.23-1.24,0.37c-0.41,0.14-0.8,0.29-1.19,0.46c-0.38,0.17-0.75,0.35-1.12,0.55
								c-0.35,0.2-0.71,0.42-1.04,0.65c-0.35,0.24-0.68,0.48-0.98,0.74c-0.31,0.26-0.6,0.54-0.87,0.84
								c-0.27,0.29-0.52,0.61-0.76,0.94c-0.25,0.33-0.46,0.67-0.66,1.03c-0.21,0.36-0.39,0.73-0.54,1.12
								c-0.16,0.38-0.29,0.78-0.41,1.18c-0.1,0.4-0.19,0.82-0.25,1.25c-0.06,0.43-0.1,0.87-0.11,1.32l-5.06,139.79l7.53-0.08
								l13.83-0.15c0.06,0,0.12,0,0.19,0c0.07,0,0.12,0,0.19-0.01c0.06,0,0.12,0,0.19-0.01c0.07,0,0.12,0,0.19,0
								c0.5-0.02,0.97-0.07,1.45-0.15c0.47-0.07,0.94-0.16,1.41-0.27c0.46-0.1,0.91-0.25,1.36-0.39c0.45-0.15,0.89-0.33,1.33-0.52
								c0.48-0.23,0.96-0.46,1.41-0.73c0.45-0.26,0.88-0.54,1.29-0.85c0.42-0.3,0.81-0.63,1.2-0.97c0.38-0.34,0.74-0.7,1.09-1.09
								c0.34-0.38,0.67-0.78,0.97-1.18c0.31-0.41,0.6-0.82,0.87-1.26c0.28-0.43,0.53-0.87,0.78-1.32c0.24-0.46,0.46-0.93,0.66-1.4
								c0.2-0.48,0.39-0.97,0.53-1.47c0.15-0.5,0.28-1,0.39-1.53c0.1-0.52,0.18-1.05,0.21-1.58c0.06-0.54,0.08-1.09,0.07-1.64
								l0.1-125.6v-5.45l-17.54-2.74c-0.05-0.01-0.1-0.01-0.16-0.03c-0.03-0.01-0.09-0.01-0.15-0.03c-0.04,0-0.1-0.01-0.15-0.01
								C228.69,157.8,228.64,157.79,228.58,157.79"/>
							
								<radialGradient id="XMLID_00000010996661076963293810000003059649643339050639_" cx="25.6325" cy="312.4766" r="457.0004" gradientTransform="matrix(0.9997 0 0 0.9997 0.0467 -0.0914)" gradientUnits="userSpaceOnUse">
								<stop  offset="0" style="stop-color:#009DC1"/>
								<stop  offset="0.5527" style="stop-color:#00BDD5"/>
								<stop  offset="1" style="stop-color:#009DC1"/>
							</radialGradient>
							<path id="XMLID_201_" style="fill:url(#XMLID_00000010996661076963293810000003059649643339050639_);" d="M407.09,321.08
								c-0.38,0.03-0.75,0.07-1.12,0.16c-0.36,0.08-0.73,0.17-1.07,0.29c-0.34,0.12-0.68,0.26-1.02,0.43
								c-0.34,0.17-0.66,0.35-0.98,0.57c-0.35,0.24-0.69,0.5-1,0.77c-0.33,0.28-0.63,0.57-0.93,0.88c-0.29,0.32-0.58,0.64-0.84,1
								c-0.26,0.35-0.51,0.72-0.75,1.11c-0.24,0.39-0.47,0.8-0.67,1.23c-0.2,0.43-0.39,0.87-0.55,1.33
								c-0.17,0.45-0.33,0.94-0.45,1.43c-0.13,0.49-0.24,1-0.34,1.53c-0.08,0.44-0.15,0.88-0.19,1.32c-0.06,0.44-0.08,0.89-0.1,1.35
								c-0.02,0.45-0.02,0.92-0.01,1.38c0.01,0.47,0.05,0.94,0.09,1.42c0.01,0.1,0.02,0.21,0.03,0.31c0.01,0.1,0.02,0.21,0.03,0.32
								c0.01,0.11,0.02,0.21,0.03,0.31c0.01,0.1,0.03,0.21,0.05,0.31c0.08,0.6,0.18,1.17,0.3,1.75c0.12,0.58,0.27,1.15,0.42,1.7
								c0.17,0.56,0.35,1.12,0.56,1.66c0.2,0.54,0.42,1.07,0.67,1.6c0.04,0.1,0.1,0.2,0.14,0.3c0.06,0.1,0.1,0.2,0.15,0.3
								c0.05,0.09,0.1,0.19,0.15,0.29c0.06,0.1,0.1,0.19,0.16,0.29c0.21,0.4,0.44,0.79,0.67,1.16c0.22,0.38,0.47,0.73,0.72,1.09
								c0.24,0.34,0.51,0.68,0.78,1c0.27,0.33,0.55,0.65,0.84,0.95c0.26,0.26,0.51,0.52,0.77,0.76c0.27,0.26,0.52,0.48,0.8,0.71
								c0.27,0.22,0.55,0.44,0.83,0.64c0.28,0.19,0.56,0.39,0.85,0.56c0.11,0.07,0.24,0.14,0.35,0.21c0.12,0.06,0.23,0.13,0.35,0.19
								c0.12,0.07,0.24,0.12,0.36,0.19c0.12,0.06,0.25,0.11,0.36,0.17c0.43,0.2,0.85,0.37,1.29,0.51c0.43,0.14,0.86,0.24,1.3,0.32
								c0.44,0.08,0.87,0.14,1.3,0.15c0.44,0.02,0.88,0.01,1.32-0.02c0.05-0.01,0.1-0.01,0.14-0.02c0.04,0,0.09-0.01,0.14-0.01
								c0.04-0.01,0.09-0.01,0.14-0.02c0.03,0,0.09-0.01,0.14-0.02c0.39-0.05,0.76-0.12,1.14-0.22c0.37-0.09,0.73-0.21,1.07-0.35
								c0.37-0.14,0.71-0.3,1.05-0.49c0.32-0.18,0.66-0.39,0.98-0.61c0.34-0.25,0.69-0.52,1-0.81c0.32-0.29,0.62-0.61,0.91-0.93
								c0.28-0.33,0.56-0.68,0.81-1.05c0.25-0.36,0.49-0.75,0.71-1.16c0.23-0.4,0.43-0.82,0.62-1.27c0.19-0.44,0.35-0.89,0.51-1.36
								c0.15-0.46,0.29-0.95,0.41-1.45c0.11-0.5,0.22-1,0.3-1.52c0.08-0.53,0.15-1.06,0.18-1.59c0.04-0.54,0.07-1.08,0.06-1.63
								c0-0.54-0.02-1.09-0.08-1.66c-0.05-0.55-0.12-1.13-0.21-1.68c-0.09-0.57-0.21-1.14-0.34-1.69c-0.14-0.55-0.28-1.09-0.45-1.62
								c-0.17-0.53-0.36-1.06-0.56-1.58c-0.21-0.51-0.43-1.02-0.69-1.51c-0.07-0.15-0.14-0.3-0.22-0.44
								c-0.07-0.15-0.15-0.29-0.23-0.43c-0.08-0.14-0.16-0.28-0.23-0.42c-0.09-0.14-0.17-0.28-0.25-0.42
								c-0.18-0.32-0.39-0.63-0.59-0.93c-0.21-0.3-0.41-0.6-0.62-0.88c-0.21-0.28-0.44-0.56-0.67-0.83
								c-0.23-0.27-0.46-0.53-0.69-0.78c-0.34-0.36-0.7-0.7-1.05-1.02c-0.35-0.33-0.72-0.63-1.09-0.91
								c-0.38-0.29-0.76-0.55-1.15-0.79c-0.39-0.26-0.8-0.48-1.22-0.69c-0.41-0.2-0.82-0.38-1.24-0.53
								c-0.42-0.15-0.84-0.27-1.26-0.37c-0.43-0.1-0.85-0.17-1.27-0.21c-0.43-0.04-0.86-0.06-1.29-0.04c-0.05,0-0.09,0-0.14,0
								c-0.03,0-0.08,0-0.13,0.01c-0.04,0.01-0.08,0.01-0.13,0.01C407.18,321.06,407.13,321.06,407.09,321.08 M377.46,322
								c-0.41,0.04-0.81,0.09-1.2,0.17c-0.4,0.08-0.78,0.19-1.16,0.31c-0.38,0.13-0.75,0.28-1.12,0.46
								c-0.37,0.17-0.71,0.37-1.07,0.59c-0.4,0.25-0.79,0.5-1.16,0.79c-0.37,0.29-0.71,0.59-1.05,0.92
								c-0.34,0.33-0.65,0.67-0.96,1.04c-0.3,0.37-0.59,0.76-0.87,1.17c-0.27,0.41-0.53,0.83-0.76,1.27
								c-0.25,0.45-0.46,0.9-0.67,1.38c-0.19,0.48-0.37,0.97-0.52,1.5c-0.16,0.51-0.31,1.05-0.43,1.59
								c-0.13,0.55-0.22,1.11-0.31,1.68c-0.07,0.56-0.12,1.14-0.15,1.73c-0.01,0.58-0.02,1.18,0,1.78c0.02,0.6,0.06,1.21,0.13,1.83
								c0.07,0.62,0.16,1.23,0.27,1.83c0.1,0.61,0.24,1.19,0.4,1.78c0.15,0.58,0.33,1.16,0.54,1.73c0.19,0.56,0.42,1.11,0.67,1.66
								c0.24,0.55,0.5,1.07,0.78,1.58c0.28,0.51,0.58,0.99,0.88,1.46c0.32,0.46,0.64,0.92,0.98,1.35c0.34,0.44,0.69,0.85,1.07,1.24
								c0.25,0.28,0.53,0.54,0.8,0.8c0.27,0.25,0.55,0.48,0.83,0.72c0.28,0.23,0.57,0.44,0.87,0.64c0.29,0.21,0.59,0.4,0.9,0.58
								c0.14,0.09,0.26,0.16,0.39,0.23c0.13,0.08,0.27,0.15,0.39,0.21c0.14,0.07,0.28,0.14,0.41,0.2c0.14,0.06,0.27,0.13,0.41,0.19
								c0.46,0.2,0.94,0.37,1.4,0.51c0.47,0.15,0.94,0.25,1.41,0.34c0.47,0.09,0.94,0.14,1.42,0.16c0.48,0.02,0.96,0.01,1.42-0.02
								c0.06-0.01,0.1-0.01,0.15-0.01c0.06-0.01,0.1-0.01,0.15-0.02c0.05,0,0.09-0.01,0.15-0.01c0.04,0,0.09-0.01,0.14-0.01
								c0.42-0.06,0.83-0.14,1.24-0.24c0.39-0.1,0.78-0.23,1.18-0.37c0.38-0.15,0.75-0.32,1.12-0.51c0.37-0.19,0.71-0.4,1.07-0.65
								c0.38-0.26,0.75-0.54,1.11-0.85c0.35-0.3,0.69-0.63,1.01-0.97c0.32-0.35,0.61-0.71,0.9-1.1c0.28-0.39,0.56-0.8,0.81-1.22
								c0.26-0.43,0.49-0.87,0.71-1.33c0.22-0.46,0.42-0.93,0.6-1.42c0.18-0.48,0.34-0.99,0.49-1.5c0.14-0.52,0.26-1.05,0.38-1.59
								c0.1-0.55,0.19-1.12,0.25-1.67c0.07-0.57,0.1-1.13,0.11-1.7c0.02-0.57,0.01-1.15-0.03-1.74c-0.03-0.57-0.08-1.16-0.17-1.77
								c-0.08-0.59-0.18-1.17-0.3-1.74c-0.12-0.58-0.28-1.14-0.44-1.7c-0.17-0.56-0.35-1.11-0.55-1.64
								c-0.21-0.54-0.44-1.06-0.69-1.59c-0.08-0.15-0.16-0.3-0.23-0.45c-0.08-0.15-0.15-0.3-0.24-0.45
								c-0.08-0.15-0.16-0.3-0.25-0.44c-0.08-0.15-0.17-0.29-0.26-0.44c-0.19-0.33-0.39-0.65-0.6-0.96
								c-0.21-0.32-0.42-0.62-0.64-0.91c-0.22-0.31-0.45-0.58-0.69-0.86c-0.22-0.28-0.47-0.55-0.71-0.81
								c-0.36-0.37-0.71-0.73-1.08-1.06c-0.38-0.33-0.77-0.64-1.16-0.94c-0.39-0.29-0.8-0.57-1.2-0.82
								c-0.42-0.25-0.84-0.5-1.27-0.71c-0.43-0.21-0.87-0.4-1.31-0.56c-0.44-0.15-0.89-0.29-1.34-0.38
								c-0.45-0.1-0.91-0.17-1.36-0.21c-0.45-0.04-0.91-0.06-1.39-0.04c-0.05,0-0.11,0-0.15,0c-0.05,0.01-0.11,0.01-0.15,0.01
								c-0.06,0-0.1,0-0.16,0.01C377.56,322,377.51,322,377.46,322 M380.57,217.96l8.01,57.89l-24.05-0.73l-9.85-0.3l3.36,31.86
								l10.11-0.11l38.31-0.42c0.05,0,0.08,0,0.12,0c0.04,0,0.09,0,0.13,0c0.03,0,0.08,0,0.12-0.01c0.04,0,0.08,0,0.13,0
								c0.3-0.02,0.61-0.05,0.91-0.11c0.29-0.06,0.59-0.13,0.87-0.21c0.28-0.09,0.56-0.2,0.82-0.32c0.27-0.12,0.53-0.26,0.78-0.42
								c0.27-0.18,0.55-0.37,0.8-0.58c0.26-0.22,0.51-0.44,0.75-0.68c0.22-0.24,0.45-0.51,0.66-0.78c0.21-0.28,0.41-0.57,0.6-0.88
								c0.19-0.32,0.37-0.63,0.52-0.95c0.16-0.33,0.31-0.67,0.43-1.01c0.13-0.35,0.24-0.71,0.34-1.07c0.1-0.37,0.18-0.75,0.25-1.15
								c0.08-0.38,0.14-0.78,0.17-1.18c0.02-0.41,0.03-0.82,0.03-1.24c0-0.42-0.01-0.85-0.04-1.28c-0.05-0.44-0.09-0.88-0.16-1.33
								l-9.91-61.26c-0.06-0.4-0.14-0.8-0.23-1.18c-0.09-0.38-0.2-0.76-0.32-1.13c-0.12-0.37-0.26-0.74-0.41-1.1
								c-0.15-0.36-0.32-0.71-0.5-1.07c-0.03-0.06-0.06-0.11-0.1-0.18c-0.03-0.06-0.06-0.12-0.09-0.18
								c-0.03-0.07-0.07-0.12-0.1-0.18c-0.02-0.07-0.06-0.12-0.09-0.18c-0.17-0.28-0.33-0.56-0.51-0.83
								c-0.17-0.27-0.36-0.53-0.55-0.79c-0.19-0.25-0.39-0.51-0.6-0.75c-0.21-0.25-0.42-0.49-0.64-0.72
								c-0.27-0.29-0.54-0.56-0.81-0.82c-0.28-0.26-0.57-0.51-0.85-0.74c-0.29-0.23-0.58-0.45-0.88-0.65
								c-0.29-0.2-0.6-0.39-0.91-0.56c-0.31-0.19-0.63-0.35-0.95-0.49c-0.32-0.15-0.64-0.27-0.98-0.37
								c-0.32-0.11-0.65-0.2-0.98-0.28c-0.33-0.07-0.66-0.12-1-0.16L380.57,217.96"/>
							
								<radialGradient id="XMLID_00000039817301122259172340000001726610110479613831_" cx="25.6485" cy="312.4805" r="456.9858" gradientTransform="matrix(0.9997 0 0 0.9997 0.0467 -0.0914)" gradientUnits="userSpaceOnUse">
								<stop  offset="0" style="stop-color:#009DC1"/>
								<stop  offset="0.5527" style="stop-color:#00BDD5"/>
								<stop  offset="1" style="stop-color:#009DC1"/>
							</radialGradient>
							<path id="XMLID_200_" style="fill:url(#XMLID_00000039817301122259172340000001726610110479613831_);" d="M413.37,218.12
								c-0.12-0.01-0.21,0.01-0.28,0.06c-0.07,0.04-0.12,0.12-0.17,0.21c-0.04,0.09-0.07,0.22-0.07,0.37
								c-0.01,0.15,0,0.33,0.02,0.53c0,0.06,0,0.12,0,0.18c0.01,0.06,0.01,0.12,0.01,0.19c0.01,0.07,0.01,0.13,0.02,0.19
								c0.01,0.07,0.02,0.13,0.02,0.18c0.05,0.27,0.11,0.56,0.19,0.87c0.09,0.3,0.19,0.63,0.3,0.97c0.12,0.35,0.26,0.7,0.41,1.08
								c0.16,0.38,0.33,0.78,0.51,1.19c0.25,0.53,0.5,1.07,0.8,1.64c0.28,0.57,0.59,1.15,0.93,1.74c0.34,0.6,0.71,1.22,1.09,1.85
								c0.38,0.63,0.8,1.28,1.23,1.95c0.45,0.67,0.9,1.32,1.39,1.97c0.49,0.66,0.99,1.3,1.52,1.94c0.53,0.63,1.09,1.27,1.66,1.9
								c0.58,0.63,1.17,1.25,1.79,1.87c0.09,0.08,0.17,0.17,0.27,0.26c0.09,0.09,0.17,0.17,0.26,0.26c0.09,0.09,0.18,0.17,0.27,0.26
								c0.08,0.08,0.18,0.17,0.27,0.26c0.61,0.56,1.23,1.1,1.86,1.64c0.64,0.52,1.3,1.03,1.97,1.52c0.68,0.5,1.36,0.97,2.06,1.43
								c0.71,0.45,1.44,0.89,2.17,1.32c0.85,0.48,1.72,0.92,2.6,1.31c0.89,0.39,1.8,0.73,2.72,1.02c0.92,0.3,1.87,0.54,2.83,0.74
								c0.96,0.2,1.95,0.35,2.94,0.45l10.85,0.77l1.04,4.94l4.81,22.9l-40.67-1.24l2.76,16.18c0.07,0.44,0.16,0.87,0.27,1.3
								c0.1,0.43,0.22,0.85,0.35,1.26c0.13,0.41,0.29,0.82,0.45,1.21c0.16,0.4,0.34,0.79,0.53,1.18c0.19,0.37,0.4,0.74,0.61,1.12
								c0.22,0.36,0.44,0.72,0.68,1.05c0.23,0.34,0.48,0.68,0.73,1c0.26,0.32,0.52,0.62,0.79,0.93c0.24,0.25,0.47,0.49,0.72,0.73
								c0.25,0.24,0.49,0.45,0.75,0.66c0.24,0.21,0.5,0.4,0.77,0.59c0.26,0.18,0.51,0.36,0.79,0.51c0.05,0.03,0.09,0.06,0.14,0.08
								c0.05,0.02,0.09,0.05,0.13,0.07c0.05,0.03,0.09,0.05,0.13,0.08c0.05,0.03,0.1,0.05,0.14,0.08c0.32,0.16,0.64,0.3,0.96,0.43
								c0.34,0.12,0.65,0.23,0.98,0.31c0.33,0.07,0.65,0.14,0.99,0.17c0.34,0.04,0.66,0.06,1,0.05l42.87-0.45c0.02,0,0.06,0,0.09,0
								c0.02,0,0.05,0,0.08,0c0.02,0,0.06,0,0.08,0c0.03,0,0.06-0.01,0.09-0.01c0.26-0.02,0.51-0.06,0.75-0.1
								c0.25-0.05,0.48-0.11,0.7-0.2c0.23-0.08,0.46-0.17,0.66-0.29c0.21-0.11,0.41-0.23,0.61-0.38c0.21-0.15,0.43-0.33,0.61-0.52
								c0.19-0.19,0.38-0.39,0.54-0.61c0.17-0.22,0.33-0.45,0.48-0.69c0.14-0.26,0.29-0.52,0.4-0.8c0.13-0.28,0.24-0.56,0.34-0.86
								c0.1-0.29,0.18-0.6,0.26-0.91c0.07-0.32,0.14-0.64,0.19-0.98c0.05-0.33,0.09-0.66,0.11-1.02c0.02-0.36,0.04-0.71,0.03-1.07
								c0-0.37-0.02-0.74-0.05-1.12c-0.03-0.38-0.08-0.77-0.14-1.15c-0.07-0.39-0.15-0.8-0.24-1.21l-12.7-55.64
								c-0.09-0.36-0.19-0.72-0.29-1.07c-0.11-0.35-0.23-0.69-0.35-1.04c-0.13-0.34-0.27-0.68-0.42-1
								c-0.15-0.33-0.31-0.66-0.48-0.98c-0.03-0.06-0.07-0.12-0.1-0.18c-0.04-0.06-0.08-0.11-0.11-0.18
								c-0.03-0.06-0.06-0.11-0.1-0.17c-0.03-0.06-0.07-0.11-0.1-0.17c-0.15-0.25-0.31-0.49-0.46-0.73
								c-0.16-0.24-0.33-0.48-0.49-0.7c-0.17-0.24-0.34-0.46-0.53-0.68c-0.17-0.22-0.36-0.44-0.55-0.64
								c-0.23-0.26-0.46-0.51-0.71-0.74c-0.24-0.23-0.48-0.46-0.73-0.66c-0.25-0.21-0.5-0.41-0.76-0.6
								c-0.26-0.18-0.52-0.35-0.8-0.51c-0.26-0.15-0.54-0.3-0.8-0.43c-0.27-0.13-0.55-0.24-0.82-0.34
								c-0.26-0.09-0.54-0.17-0.82-0.24c-0.27-0.07-0.55-0.11-0.84-0.14l-16.88-1.82c-0.33-0.05-0.65-0.09-0.99-0.14
								c-0.34-0.05-0.69-0.09-1.05-0.14c-0.37-0.05-0.73-0.1-1.11-0.14c-0.37-0.03-0.78-0.08-1.17-0.13l-2.47-0.26
								c-0.07,0-0.13,0-0.2,0c-0.07,0-0.13,0-0.21,0c-0.07,0-0.14,0-0.21-0.01c-0.08,0-0.15-0.01-0.22-0.01
								c-0.06-0.01-0.11-0.01-0.17-0.01c-0.07,0-0.14,0-0.18-0.02c-0.06,0-0.13-0.01-0.18-0.01c-0.06-0.01-0.12-0.01-0.18-0.01
								c-0.54-0.07-1.07-0.12-1.6-0.19c-0.54-0.07-1.07-0.14-1.61-0.21c-0.54-0.07-1.07-0.15-1.62-0.23
								c-0.54-0.08-1.09-0.17-1.63-0.25c-0.69-0.1-1.38-0.22-2.07-0.35c-0.7-0.12-1.39-0.25-2.06-0.39
								c-0.7-0.15-1.38-0.31-2.05-0.47c-0.7-0.16-1.37-0.33-2.04-0.51c-0.68-0.18-1.34-0.38-1.98-0.6
								c-0.64-0.22-1.27-0.45-1.87-0.69c-0.61-0.24-1.21-0.51-1.77-0.78c-0.57-0.28-1.14-0.57-1.66-0.88
								c-0.07-0.04-0.12-0.08-0.18-0.1c-0.05-0.03-0.1-0.05-0.15-0.07c-0.06-0.02-0.1-0.04-0.14-0.05
								c-0.05-0.01-0.09-0.02-0.13-0.03C413.37,218.12,413.37,218.12,413.37,218.12L413.37,218.12L413.37,218.12L413.37,218.12"/>
						</g>
					</g>
				</g>
			</g>
			<path id="XMLID_195_" class="st7" d="M358.05,306.69l-3.36-31.86l9.85,0.3v-0.01l-4.53-0.13l-5.15-0.17l-5.1-48.21
				c-0.02-0.23-0.05-0.47-0.09-0.71c-0.03-0.24-0.08-0.47-0.12-0.7c-0.06-0.24-0.1-0.47-0.17-0.69c-0.06-0.23-0.12-0.46-0.18-0.69
				l-0.23-2.05c0-0.01,0-0.01,0-0.03c0-0.01,0-0.01,0-0.03c0-0.01,0-0.02,0-0.02c0-0.01,0-0.02,0-0.03
				c-0.15-1.31-0.44-2.62-0.86-3.92c-0.42-1.3-0.95-2.58-1.61-3.87c-0.65-1.28-1.4-2.54-2.24-3.79c-0.85-1.26-1.78-2.49-2.79-3.71
				c-3.07-3.72-6.79-7.27-10.69-10.52c-3.92-3.26-8-6.22-11.71-8.72c-3.72-2.52-7.08-4.58-9.51-6.01c-2.43-1.44-3.93-2.24-3.93-2.24
				s-2.54,0.66-6.36,2.01c-3.89,1.36-9.13,3.43-14.45,6.21c-5.41,2.84-10.94,6.43-15.14,10.75c-4.27,4.42-7.13,9.59-7.04,15.43
				l1.41,87.74l0,0v7.25l62.32-1.25c-0.33,0.59-0.68,1.16-1.03,1.72c-0.36,0.56-0.72,1.1-1.11,1.62c-0.37,0.53-0.78,1.04-1.19,1.53
				c-0.42,0.5-0.84,0.97-1.27,1.43c-0.04,0.04-0.07,0.09-0.11,0.12c-0.05,0.04-0.08,0.08-0.12,0.13c-0.04,0.04-0.08,0.09-0.12,0.12
				c-0.04,0.04-0.09,0.09-0.13,0.13c-0.4,0.41-0.8,0.82-1.22,1.23c-0.42,0.41-0.85,0.81-1.27,1.19c-0.43,0.39-0.88,0.78-1.32,1.16
				c-0.44,0.38-0.91,0.76-1.37,1.13c-0.51,0.4-1.03,0.81-1.54,1.22c-0.52,0.4-1.03,0.8-1.57,1.21c-0.53,0.41-1.06,0.8-1.61,1.21
				c-0.54,0.41-1.08,0.81-1.63,1.22c-0.56,0.41-1.11,0.82-1.66,1.25c-0.55,0.42-1.09,0.85-1.63,1.28c-0.55,0.44-1.09,0.88-1.62,1.33
				c-0.55,0.45-1.08,0.9-1.62,1.36c-0.53,0.47-1.06,0.95-1.59,1.43c-0.53,0.49-1.05,0.99-1.56,1.51c-0.52,0.52-1.02,1.04-1.53,1.59
				c-0.51,0.54-1.01,1.09-1.49,1.66c-0.5,0.57-0.98,1.16-1.44,1.78c-0.46,0.62-0.91,1.26-1.34,1.93c-0.43,0.66-0.85,1.36-1.24,2.07
				c-0.41,0.72-0.79,1.47-1.16,2.24c-0.32,0.65-0.61,1.29-0.88,1.91c-0.28,0.61-0.53,1.22-0.75,1.81c-0.25,0.59-0.45,1.16-0.64,1.71
				c-0.2,0.56-0.37,1.1-0.52,1.63c-0.15,0.53-0.28,1.04-0.4,1.52c-0.11,0.48-0.21,0.95-0.29,1.39c-0.08,0.43-0.14,0.85-0.19,1.24
				c-0.05,0.4-0.07,0.77-0.08,1.11l0.03,0.75c0.01,0.28,0.03,0.53,0.06,0.77c0.04,0.24,0.08,0.44,0.15,0.62
				c0.06,0.18,0.12,0.34,0.21,0.48c0.09,0.14,0.19,0.26,0.31,0.36c0.05,0.04,0.09,0.08,0.14,0.11c0.05,0.03,0.1,0.06,0.16,0.09
				c0.05,0.02,0.1,0.04,0.16,0.05c0.06,0,0.12,0.01,0.19,0l0,0c0.01,0,0.03,0,0.03,0s0,0,0.01,0c0,0,0.01,0,0.02,0
				c0.1-0.02,0.2-0.05,0.32-0.09c0.11-0.04,0.23-0.09,0.35-0.16c0.12-0.08,0.25-0.16,0.37-0.27c0.13-0.1,0.27-0.21,0.41-0.35
				c0.52-0.46,1.05-0.9,1.59-1.34c0.53-0.44,1.07-0.87,1.62-1.3c0.53-0.42,1.07-0.82,1.63-1.23c0.55-0.39,1.09-0.78,1.65-1.16
				c0.52-0.35,1.05-0.69,1.58-1.03c0.52-0.33,1.05-0.66,1.59-0.98c0.53-0.31,1.07-0.62,1.61-0.91c0.54-0.3,1.08-0.59,1.63-0.87
				c1.13-0.57,2.26-1.14,3.38-1.68c1.13-0.54,2.24-1.08,3.36-1.59c1.11-0.53,2.22-1.02,3.34-1.52c1.09-0.48,2.2-0.96,3.29-1.43
				c1.09-0.46,2.19-0.92,3.26-1.38c1.08-0.46,2.15-0.93,3.21-1.39c1.06-0.46,2.11-0.93,3.15-1.39c1.03-0.46,2.06-0.92,3.09-1.39
				c1.01-0.47,2.02-0.96,3-1.47c0.97-0.52,1.92-1.05,2.85-1.62c0.93-0.55,1.82-1.14,2.71-1.75c0.88-0.62,1.74-1.25,2.57-1.92
				c0.83-0.66,1.65-1.35,2.42-2.08c0.77-0.73,1.52-1.49,2.23-2.3c0.72-0.79,1.4-1.62,2.06-2.48c0.66-0.87,1.29-1.75,1.9-2.68
				c0.59-0.93,1.16-1.92,1.68-2.96c0.52-1.05,1-2.15,1.43-3.31c0.44-1.16,0.83-2.38,1.19-3.65c0.36-1.27,0.68-2.6,0.95-3.99
				l8.33-0.08l4.83-0.05v-0.01L358.05,306.69z"/>
		</g>
		<g id="XMLID_186_">
			<g id="XMLID_191_" class="st8">
				<polyline id="XMLID_193_" class="st9" points="283.69,225.48 285.42,278.83 292.98,279.04 292.05,255.76 304.47,256.46 
					304.1,249.43 291.77,248.62 291.14,232.95 305.06,234.12 304.7,227.4 283.69,225.48 				"/>
				<polyline id="XMLID_192_" class="st9" points="309.12,227.8 312.17,279.6 319.24,279.79 317.15,247.93 317.27,247.93 
					325.51,270.52 328.91,270.66 333.76,249.05 333.88,249.06 336.46,280.28 343.13,280.47 338.67,230.51 332.5,229.94 
					326.19,255.47 326.06,255.47 315.6,228.4 309.12,227.8 				"/>
			</g>
			<g id="XMLID_187_">
				<g id="XMLID_188_">
					<polyline id="XMLID_190_" class="st10" points="278.87,220.65 280.6,274.01 288.16,274.22 287.21,250.94 299.65,251.64 
						299.27,244.6 286.94,243.8 286.32,228.12 300.24,229.29 299.87,222.58 278.87,220.65 					"/>
					<polyline id="XMLID_189_" class="st10" points="304.3,222.97 307.34,274.78 314.41,274.97 312.32,243.1 312.45,243.1 
						320.68,265.69 324.09,265.83 328.94,244.22 329.06,244.24 331.64,275.47 338.3,275.65 333.85,225.69 327.68,225.12 
						321.36,250.64 321.23,250.64 310.78,223.58 304.3,222.97 					"/>
				</g>
			</g>
		</g>
	</g>
</g>
<g id="XMLID_14_">
	<path id="XMLID_15_" class="st11" d="M110.95,363.46c-2.9,0-5.76-0.97-7.25-3.08c-1.58,1.98-3.95,3.08-7.03,3.08h-5.8
		c-2.9,0-4.04,1.32-4.04,4v3.78h-5.49v-3.95c0-4.75,2.42-8.35,7.25-8.83c-0.79-1.71-1.14-3.73-1.14-6.11
		c0-6.59,3.38-11.12,9.23-11.12c5.93,0,9.32,4.48,9.32,11.16c0,0.7-0.04,1.36-0.13,2.02c0.31,2.64,2.06,4,5.18,4h0.92v5.05H110.95z
		 M96.67,346.02c-2.15,0-3.6,1.54-3.6,6.28c0,4.53,1.45,6.11,3.6,6.11c2.24,0,3.73-1.58,3.73-6.06
		C100.4,347.56,98.91,346.02,96.67,346.02z"/>
	<path id="XMLID_18_" class="st11" d="M110.64,363.46v-5.05h47.21v-5.32c0-2.5-0.7-3.69-2.99-3.69h-13.31v-6.85
		c0-4.57,3.69-7.47,9.01-7.47h8.65v5.05h-8.65c-2.55,0-3.69,1.14-3.69,2.5v1.67h8.22c5.58,0,8.26,3.08,8.26,8.66v5.45h3.82v5.05
		C163.17,363.46,136.96,363.46,110.64,363.46z"/>
	<path id="XMLID_20_" class="st11" d="M165.85,363.46v-5.05c3.78,0,5.54-1.36,5.54-3.95v-11.51h5.49v11.78
		C176.87,360.13,172.66,363.46,165.85,363.46z M166.2,339.12v-5.49h4.39v5.49H166.2z M172.79,339.12v-5.49h4.39v5.49H172.79z"/>
	<path id="XMLID_24_" class="st11" d="M199.02,363.46c-0.66,4.88-4.48,8-8.96,8.26l-0.97,0.09v-5.1c2.24-0.04,4-1.45,4.17-3.25
		h-3.29c-3.87,0-8.83-2.24-8.83-9.67c0-6.99,3.21-10.85,8.83-10.85h9.09v15.47h5.23v5.05H199.02z M193.57,347.87h-3.51
		c-2.99,0-3.43,3.69-3.43,5.93c0,2.46,1.14,4.61,3.43,4.61h3.51V347.87z"/>
	<path id="XMLID_27_" class="st11" d="M225.03,363.46h-22.14v-5.05h6.94v-15.47h5.36v8.17c2.11-3.73,5.58-7.69,10.98-7.69
		c6.37,0,8.88,5.36,8.88,9.27C235,356.17,233.11,363.46,225.03,363.46z M226.04,348.31c-5.23,0-7.91,6.15-9.27,10.1h8.26
		c2.9,0,4.48-2.5,4.48-5.8C229.51,350.42,228.37,348.31,226.04,348.31z"/>
	<path id="XMLID_30_" class="st11" d="M239.3,363.46v-5.93h5.45v5.93H239.3z"/>
	<path id="XMLID_32_" class="st11" d="M248.97,363.46v-5.93h5.45v5.93H248.97z"/>
	<path id="XMLID_34_" class="st11" d="M258.63,363.46v-5.93h5.45v5.93H258.63z"/>
</g>
</svg>
