<?xml version="1.0" encoding="utf-8"?>
<!-- Generator: Adobe Illustrator 24.3.0, SVG Export Plug-In . SVG Version: 6.00 Build 0)  -->
<!DOCTYPE svg PUBLIC "-//W3C//DTD SVG 1.1//EN" "http://www.w3.org/Graphics/SVG/1.1/DTD/svg11.dtd" [
	<!ENTITY ns_extend "http://ns.adobe.com/Extensibility/1.0/">
	<!ENTITY ns_ai "http://ns.adobe.com/AdobeIllustrator/10.0/">
	<!ENTITY ns_graphs "http://ns.adobe.com/Graphs/1.0/">
	<!ENTITY ns_vars "http://ns.adobe.com/Variables/1.0/">
	<!ENTITY ns_imrep "http://ns.adobe.com/ImageReplacement/1.0/">
	<!ENTITY ns_sfw "http://ns.adobe.com/SaveForWeb/1.0/">
	<!ENTITY ns_custom "http://ns.adobe.com/GenericCustomNamespace/1.0/">
	<!ENTITY ns_adobe_xpath "http://ns.adobe.com/XPath/1.0/">
]>
<svg version="1.1" id="Layer_1" xmlns:x="&ns_extend;" xmlns:i="&ns_ai;" xmlns:graph="&ns_graphs;"
	 xmlns="http://www.w3.org/2000/svg" xmlns:xlink="http://www.w3.org/1999/xlink" x="0px" y="0px" width="80px" height="48px"
	 viewBox="0 0 80 48" style="enable-background:new 0 0 80 48;" xml:space="preserve">
<style type="text/css">
	.st0{fill:#F6F8FA;}
</style>
<metadata>
	<sfw  xmlns="&ns_sfw;">
		<slices></slices>
		<sliceSourceBounds  bottomLeftOrigin="true" height="48" width="80" x="0" y="0"></sliceSourceBounds>
	</sfw>
</metadata>
<path class="st0" d="M6,0h68c3.3,0,6,2.7,6,6v36c0,3.3-2.7,6-6,6H6c-3.3,0-6-2.7-6-6V6C0,2.7,2.7,0,6,0z"/>
<g>
	<path d="M40.1,27.9c-3.9,0-7.8,0-11.7,0c-1.8,0-2,0.1-2,2c0,0.8,0,1.6,0,2.4c0,0.4-0.1,0.6-0.5,0.6c-1.8,0-1.5,0.2-1.6-1.5
		c0-0.5,0-1,0-1.4c-0.3-2.9,1.1-5.3,2.5-7.7c0.3-0.5,0.9-0.8,1.4-1.1c1.8-0.8,3.7-1.1,5.6-1.4c4.6-0.6,9.3-0.6,13.9,0.2
		c1.3,0.2,2.6,0.6,3.9,1c1,0.3,1.7,0.9,2.1,1.8c0.7,1.5,1.4,3,2,4.6c0.2,0.4,0.1,0.9,0.1,1.4c0,1.1,0,2.2,0,3.4
		c0,0.5-0.1,0.7-0.7,0.7c-1.8,0-1.4,0.2-1.5-1.4c0-0.8,0-1.6,0-2.4c0-0.7-0.3-1-1-1c-0.5,0-1,0-1.5,0C47.4,27.9,43.8,27.9,40.1,27.9
		z"/>
	<path d="M29.8,32.9c0,0.7,0,1.3,0,2c0,0.4-0.1,0.7-0.6,0.6c-0.5,0-1,0-1.5,0c-0.2,0-0.5-0.3-0.5-0.5c0-1.7,0-3.5,0-5.2
		c0-0.8,0.3-1,1.1-1.1c0.2,0,0.4,0,0.6,0c7.3,0,14.7,0,22,0c1.7,0,1.8,0.2,1.8,1.8c0,1.4,0,2.9,0,4.3c0,0.5-0.2,0.7-0.7,0.7
		c-0.4,0-0.8,0-1.2,0c-0.5,0-0.7-0.2-0.7-0.7c0-0.6,0-1.2,0-1.9C43.4,32.9,36.7,32.9,29.8,32.9z"/>
	<path d="M27.1,20.7c0-2.3,0-4.6,0-6.8c0-0.7,0.6-1.3,1.4-1.4c0.2,0,0.5,0,0.7,0c7.3,0,14.5,0,21.8,0c1.5,0,2,0.5,2,2
		c0,1.8,0,3.6,0,5.5c0,0.2,0,0.4,0,0.7c-0.7-0.3-1.4-0.6-2-0.9c-0.1-0.1-0.2-0.3-0.2-0.4c0-0.4,0-0.9,0-1.3c0.1-0.9-0.4-1.5-1.2-1.7
		c-0.7-0.2-1.4-0.4-2.2-0.4c-1.5,0-3,0-4.5,0.2c-1.6,0.2-1.9,0.7-2.1,2.3c-0.2,0-0.5,0-0.7,0c-0.2,0-0.5,0-0.7,0
		c-0.1-0.1-0.1-0.1-0.1-0.1c-0.2-1.5-0.5-1.9-2-2.2c-2-0.4-4-0.4-6,0c-0.4,0.1-0.8,0.2-1.2,0.4c-0.5,0.3-0.8,0.7-0.8,1.3
		c0.2,1.3-0.1,2.2-1.5,2.5C27.6,20.4,27.4,20.6,27.1,20.7z"/>
</g>
</svg>
