<?xml version="1.0" encoding="utf-8"?>
<!-- Generator: Adobe Illustrator 24.3.0, SVG Export Plug-In . SVG Version: 6.00 Build 0)  -->
<svg version="1.1" id="Layer_1" xmlns="http://www.w3.org/2000/svg" xmlns:xlink="http://www.w3.org/1999/xlink" x="0px" y="0px"
	 width="88px" height="86px" viewBox="0 0 88 86" style="enable-background:new 0 0 88 86;" xml:space="preserve">
<style type="text/css">
	.st0{fill:#FFBB00;}
</style>
<path class="st0" d="M0.6,43.4c0.4-0.1,0.7-0.2,0.9-0.3c7.8-2.4,15.6-4.8,23.5-7.2c5.8-1.8,9.6-5.7,11.5-11.4
	c2.5-7.9,4.9-15.7,7.3-23.6C43.8,0.6,43.9,0.4,44,0c0.4,1.3,0.8,2.5,1.1,3.7c2.1,6.9,4.2,13.9,6.4,20.8c1.8,5.8,5.7,9.6,11.4,11.4
	c7.9,2.5,15.8,4.9,23.7,7.3c0.2,0.1,0.3,0.1,0.6,0.2c-3.1,1-6,1.9-9,2.8C73.2,47.8,68,49.4,62.9,51c-5.7,1.8-9.5,5.6-11.3,11.3
	c-2.5,7.8-4.9,15.7-7.3,23.6c-0.1,0.2-0.1,0.4-0.3,0.8c-0.4-1.2-0.7-2.3-1-3.3c-2.1-7-4.3-13.9-6.4-20.9c-1.8-5.9-5.7-9.8-11.7-11.7
	C17,48.5,9.2,46.1,1.3,43.6C1.1,43.6,1,43.5,0.6,43.4z"/>
</svg>
