<?xml version="1.0" encoding="utf-8"?>
<!-- Generator: Adobe Illustrator 27.0.0, SVG Export Plug-In . SVG Version: 6.00 Build 0)  -->
<svg version="1.1" id="Layer_1" xmlns="http://www.w3.org/2000/svg" xmlns:xlink="http://www.w3.org/1999/xlink" x="0px" y="0px"
	 viewBox="0 0 512 512" style="enable-background:new 0 0 512 512;" xml:space="preserve">
<style type="text/css">
	.st0{fill:url(#SVGID_1_);}
	.st1{fill:url(#SVGID_00000052818738265542051870000011319890927775621005_);}
	.st2{fill:url(#SVGID_00000007395583146603705730000017901934463899073215_);}
	.st3{fill:url(#SVGID_00000071518937910897775340000002505827127797909378_);}
	.st4{fill:url(#SVGID_00000058566652252995634210000007115402878961357491_);}
	.st5{fill:url(#SVGID_00000115507160384650412030000006618046317837077385_);}
	.st6{fill:url(#SVGID_00000046327264765706005860000003908826841420093372_);}
	.st7{fill:url(#SVGID_00000036250465768656784080000006716670856341764226_);}
	.st8{fill:url(#SVGID_00000079473397596938606180000015334035610748395710_);}
	.st9{fill:url(#SVGID_00000155113673808379638570000016934589724351114113_);}
	.st10{fill:url(#SVGID_00000083785580469720201980000017127098569273767344_);}
	.st11{fill:url(#SVGID_00000118396070909971085900000011492027715034617507_);}
	.st12{fill:url(#SVGID_00000117657493787013168320000002505059693856383655_);}
</style>
<g>
	<g>
		<g>
			<g>
				<g>
					<g>
						
							<linearGradient id="SVGID_1_" gradientUnits="userSpaceOnUse" x1="1126.8276" y1="11045.083" x2="1269.7206" y2="11045.083" gradientTransform="matrix(-1 0 0 -1 1342.1625 11224.3936)">
							<stop  offset="0.0726" style="stop-color:#C2ECEF"/>
							<stop  offset="0.3797" style="stop-color:#00E1D5"/>
							<stop  offset="0.6201" style="stop-color:#0095B1"/>
							<stop  offset="1" style="stop-color:#00429B"/>
						</linearGradient>
						<path class="st0" d="M150.54,104.1c-43.13,0-78.09,34.96-78.09,78.09c0,32.7,20.1,60.69,48.62,72.32
							c27.71-6.48,53.14-17.32,73.06-36.91h-42c-19.56,0-35.41-15.86-35.41-35.41s15.85-35.41,35.41-35.41h40.18l-0.26-0.31
							l-34.95-42.34L150.54,104.1z"/>
						
							<radialGradient id="SVGID_00000173132869969117852500000014982864249592382386_" cx="255.6184" cy="182.2243" r="86.7306" gradientUnits="userSpaceOnUse">
							<stop  offset="0" style="stop-color:#B3B1BA"/>
							<stop  offset="1" style="stop-color:#FFFFFF"/>
						</radialGradient>
						<path style="fill:url(#SVGID_00000173132869969117852500000014982864249592382386_);" d="M314.13,218.2l-80.18-93.61
							c-9.53-11.13-22.83-18.2-37.21-19.99c-2.4-0.3-4.82-0.47-7.27-0.47H167.5h-6.46l34.95,42.34l0.26,0.31l55.35,67.06
							c24.09,29.19,59.86,46.17,97.67,46.44c0.31,0,0.63,0.03,0.94,0.03L314.13,218.2z"/>
					</g>
				</g>
			</g>
			<g>
				<g>
					
						<linearGradient id="SVGID_00000142135958746211922120000009327717885470677889_" gradientUnits="userSpaceOnUse" x1="1122.4723" y1="10964.1045" x2="1217.5447" y2="10964.1045" gradientTransform="matrix(-1 0 0 -1 1342.1625 11224.3936)">
						<stop  offset="0" style="stop-color:#C2ECEF"/>
						<stop  offset="0.307" style="stop-color:#00E1D5"/>
						<stop  offset="0.676" style="stop-color:#0095B1"/>
						<stop  offset="1" style="stop-color:#00425F"/>
					</linearGradient>
					<path style="fill:url(#SVGID_00000142135958746211922120000009327717885470677889_);" d="M164.46,260.29L164.46,260.29
						c-0.06,0-0.12,0-0.18,0H164.46z"/>
					
						<linearGradient id="SVGID_00000023257269023903238330000008546792666179025057_" gradientUnits="userSpaceOnUse" x1="1127.4559" y1="10985.4424" x2="1221.1022" y2="10985.4424" gradientTransform="matrix(-1 0 0 -1 1342.1625 11224.3936)">
						<stop  offset="0" style="stop-color:#C2ECEF"/>
						<stop  offset="0.2288" style="stop-color:#00E1D5"/>
						<stop  offset="0.6201" style="stop-color:#0095B1"/>
						<stop  offset="1" style="stop-color:#00429B"/>
					</linearGradient>
					<path style="fill:url(#SVGID_00000023257269023903238330000008546792666179025057_);" d="M195,217.61h-0.88
						c-19.92,19.59-45.35,30.43-73.06,36.91c9.31,3.14,17.14,5.3,29.48,5.77h8.11l30.86-36.03L195,217.61z"/>
				</g>
			</g>
		</g>
		<g>
			<g>
				
					<radialGradient id="SVGID_00000122701500287842255530000012408539568942475196_" cx="257.3912" cy="182.2243" r="86.7306" gradientUnits="userSpaceOnUse">
					<stop  offset="0" style="stop-color:#FFFFFF"/>
					<stop  offset="1" style="stop-color:#B3B1BA"/>
				</radialGradient>
				<path style="fill:url(#SVGID_00000122701500287842255530000012408539568942475196_);" d="M339.42,104.13h-15.88
					c-17.1,0-33.35,7.48-44.48,20.46l-79.7,93.04l-4.52,5.28l-1.15,1.35l-30.86,36.03l-0.02,0.03c0.32,0,0.64-0.02,0.97-0.03
					c0.06,0,0.12,0,0.19,0c37.73-0.34,73.42-17.31,97.46-46.44l55.33-67.04l8.14-9.86l27.09-32.82H339.42z"/>
			</g>
			<g>
				
					<linearGradient id="SVGID_00000173146082407031035230000005074660510438108319_" gradientUnits="userSpaceOnUse" x1="-1558.2343" y1="5570.437" x2="-1412.5476" y2="5570.437" gradientTransform="matrix(1 0 0 1 1852.6946 -5385.333)">
					<stop  offset="0" style="stop-color:#C2ECEF"/>
					<stop  offset="0.2288" style="stop-color:#00E1D5"/>
					<stop  offset="0.6201" style="stop-color:#0095B1"/>
					<stop  offset="1" style="stop-color:#00429B"/>
				</linearGradient>
				<path style="fill:url(#SVGID_00000173146082407031035230000005074660510438108319_);" d="M391.53,109.89
					c-10.78,2.52-24.91,7.08-36.99,13.58c-12.83,6.9-23.86,16.26-33.14,23.19c-0.27,0.2-0.36,0.14-0.6,0.15l39.67-0.01
					c19.56,0,35.41,15.86,35.41,35.41s-15.85,35.41-35.41,35.41l-42.6-0.01l1.4,1.63l35.19,41.08l7.6-0.01
					c43.13,0,78.09-34.96,78.09-78.09C440.15,149.51,420.04,121.52,391.53,109.89z"/>
				
					<linearGradient id="SVGID_00000028327216199104244030000017482579209188244918_" gradientUnits="userSpaceOnUse" x1="368.6976" y1="81.3307" x2="339.4331" y2="190.5474">
					<stop  offset="0" style="stop-color:#00429B"/>
					<stop  offset="0.0722" style="stop-color:#00489D"/>
					<stop  offset="0.168" style="stop-color:#0059A1"/>
					<stop  offset="0.2764" style="stop-color:#0074A8"/>
					<stop  offset="0.3799" style="stop-color:#0095B1"/>
					<stop  offset="0.7712" style="stop-color:#00E1D5"/>
					<stop  offset="1" style="stop-color:#C2ECEF"/>
				</linearGradient>
				<path style="fill:url(#SVGID_00000028327216199104244030000017482579209188244918_);" d="M382.79,107.29
					c-2.06-0.46-4.49-0.91-9.31-1.66c-2.67-0.42-4.57-0.68-7.95-0.97c0,0-6.7-0.53-8.99-0.53c-0.16,0-0.51,0-0.51,0l-27.23,32.82
					l-6.1,7.39l-2.04,2.47c0.24-0.01,0.33,0.05,0.6-0.15c9.27-6.92,20.53-16.12,33.36-23.02c12.08-6.49,26.12-11.23,36.9-13.75
					C388.01,108.36,386.07,108.03,382.79,107.29z"/>
			</g>
		</g>
	</g>
	<g>
		<g>
			<g>
				<g>
					
						<linearGradient id="SVGID_00000004544295604771583270000017229660389808878231_" gradientUnits="userSpaceOnUse" x1="53.7462" y1="346.1911" x2="443.3878" y2="361.9342">
						<stop  offset="0" style="stop-color:#C2ECEF"/>
						<stop  offset="0.2288" style="stop-color:#00E1D5"/>
						<stop  offset="0.5363" style="stop-color:#0095B1"/>
						<stop  offset="1" style="stop-color:#00429B"/>
					</linearGradient>
					<path style="fill:url(#SVGID_00000004544295604771583270000017229660389808878231_);" d="M190.39,349.77
						c0,3.43-0.44,6.74-1.33,9.91c-0.89,3.17-2.14,6.14-3.77,8.89c-1.63,2.76-3.57,5.27-5.82,7.54c-2.26,2.27-4.77,4.22-7.54,5.85
						c-2.78,1.63-5.75,2.89-8.92,3.77c-3.17,0.89-6.48,1.33-9.91,1.33h-22.47v-74.59h22.47c3.43,0,6.74,0.44,9.91,1.33
						c3.17,0.89,6.15,2.14,8.92,3.77c2.77,1.63,5.29,3.58,7.54,5.85c2.25,2.27,4.19,4.78,5.82,7.54c1.63,2.76,2.89,5.72,3.77,8.9
						C189.95,343.03,190.39,346.34,190.39,349.77z M175.46,349.77c0-3.08-0.58-5.98-1.74-8.68c-1.16-2.7-2.76-5.07-4.78-7.1
						c-2.03-2.03-4.4-3.63-7.13-4.81c-2.72-1.18-5.63-1.77-8.71-1.77h-7.44v44.73h7.44c3.08,0,5.99-0.58,8.71-1.74
						c2.72-1.16,5.1-2.76,7.13-4.79c2.03-2.03,3.62-4.4,4.78-7.12C174.88,355.76,175.46,352.85,175.46,349.77z"/>
					
						<linearGradient id="SVGID_00000132057050718798082900000004816196190734278282_" gradientUnits="userSpaceOnUse" x1="53.9597" y1="340.9072" x2="443.6013" y2="356.6503">
						<stop  offset="0" style="stop-color:#C2ECEF"/>
						<stop  offset="0.2288" style="stop-color:#00E1D5"/>
						<stop  offset="0.5363" style="stop-color:#0095B1"/>
						<stop  offset="1" style="stop-color:#00429B"/>
					</linearGradient>
					<path style="fill:url(#SVGID_00000132057050718798082900000004816196190734278282_);" d="M215.51,316.22
						c0,1.32-0.25,2.55-0.76,3.69c-0.5,1.14-1.19,2.14-2.06,2.99c-0.87,0.85-1.88,1.53-3.04,2.03c-1.16,0.5-2.4,0.75-3.72,0.75
						c-1.32,0-2.56-0.25-3.72-0.75c-1.16-0.5-2.17-1.18-3.02-2.03s-1.52-1.85-2.03-2.99c-0.5-1.14-0.76-2.37-0.76-3.69
						c0-1.28,0.25-2.5,0.76-3.67c0.5-1.16,1.18-2.17,2.03-3.02s1.85-1.52,3.02-2.03c1.16-0.5,2.4-0.76,3.72-0.76
						c1.32,0,2.56,0.25,3.72,0.76c1.16,0.5,2.18,1.18,3.04,2.03c0.87,0.85,1.55,1.85,2.06,3.02
						C215.26,313.72,215.51,314.94,215.51,316.22z M213.07,387.06h-14.3v-55.71h14.3V387.06z"/>
					
						<linearGradient id="SVGID_00000167365779367647566020000010775275232134460314_" gradientUnits="userSpaceOnUse" x1="53.1495" y1="360.9603" x2="442.791" y2="376.7034">
						<stop  offset="0" style="stop-color:#C2ECEF"/>
						<stop  offset="0.2288" style="stop-color:#00E1D5"/>
						<stop  offset="0.5363" style="stop-color:#0095B1"/>
						<stop  offset="1" style="stop-color:#00429B"/>
					</linearGradient>
					<path style="fill:url(#SVGID_00000167365779367647566020000010775275232134460314_);" d="M277.83,380.04
						c0,3.92-0.75,7.59-2.23,11.03c-1.49,3.43-3.53,6.43-6.11,9c-2.58,2.57-5.6,4.59-9.05,6.08c-3.45,1.49-7.13,2.24-11.05,2.24
						l-7.12-0.1v-14.2l7.02,0.1c2.22,0,4.11-0.29,5.67-0.86c1.56-0.57,2.88-1.35,3.95-2.34s1.93-2.12,2.57-3.41
						c0.64-1.28,1.15-2.63,1.53-4.06c-0.55,0.9-1.35,1.64-2.39,2.21c-1.04,0.57-2.19,1.04-3.46,1.4c-1.27,0.36-2.58,0.62-3.95,0.76
						c-1.37,0.14-2.65,0.21-3.82,0.21c-3.92,0-7.6-0.68-11.05-2.03c-3.45-1.35-6.47-3.29-9.05-5.8c-2.58-2.51-4.62-5.59-6.11-9.23
						c-1.49-3.64-2.23-7.75-2.23-12.33c0-4.2,0.75-8.1,2.23-11.7c1.49-3.61,3.53-6.73,6.11-9.36c2.58-2.63,5.6-4.7,9.05-6.19
						c3.45-1.49,7.13-2.24,11.05-2.24c1.8,0,3.59,0.23,5.36,0.67c1.77,0.45,3.49,1.08,5.15,1.87c1.66,0.8,3.25,1.73,4.76,2.81
						c1.51,1.07,2.92,2.24,4.24,3.48l5.51-6.6h3.43V380.04z M263.52,358.71c0-1.94-0.37-3.82-1.12-5.64
						c-0.75-1.82-1.76-3.43-3.05-4.84c-1.28-1.4-2.78-2.53-4.5-3.38c-1.72-0.85-3.54-1.27-5.49-1.27c-1.94,0-3.77,0.33-5.49,0.99
						c-1.72,0.66-3.21,1.63-4.47,2.91c-1.27,1.28-2.26,2.87-2.99,4.76c-0.73,1.89-1.09,4.05-1.09,6.48c0,2.32,0.36,4.41,1.09,6.27
						c0.73,1.85,1.73,3.44,2.99,4.76c1.26,1.32,2.76,2.33,4.47,3.04c1.72,0.71,3.54,1.07,5.49,1.07c1.94,0,3.77-0.42,5.49-1.27
						c1.72-0.85,3.22-1.97,4.5-3.38c1.28-1.4,2.3-3.02,3.05-4.84C263.15,362.54,263.52,360.66,263.52,358.71z"/>
					
						<linearGradient id="SVGID_00000173843746571988683590000016424626633859650208_" gradientUnits="userSpaceOnUse" x1="54.1062" y1="337.2817" x2="443.7478" y2="353.0248">
						<stop  offset="0" style="stop-color:#C2ECEF"/>
						<stop  offset="0.2288" style="stop-color:#00E1D5"/>
						<stop  offset="0.5363" style="stop-color:#0095B1"/>
						<stop  offset="1" style="stop-color:#00429B"/>
					</linearGradient>
					<path style="fill:url(#SVGID_00000173843746571988683590000016424626633859650208_);" d="M305.39,316.22
						c0,1.32-0.25,2.55-0.76,3.69s-1.19,2.14-2.06,2.99c-0.87,0.85-1.88,1.53-3.04,2.03c-1.16,0.5-2.4,0.75-3.72,0.75
						c-1.32,0-2.56-0.25-3.72-0.75c-1.16-0.5-2.17-1.18-3.02-2.03s-1.52-1.85-2.03-2.99s-0.76-2.37-0.76-3.69
						c0-1.28,0.25-2.5,0.76-3.67c0.5-1.16,1.18-2.17,2.03-3.02s1.85-1.52,3.02-2.03c1.16-0.5,2.4-0.76,3.72-0.76
						c1.32,0,2.56,0.25,3.72,0.76s2.18,1.18,3.04,2.03c0.87,0.85,1.55,1.85,2.06,3.02C305.14,313.72,305.39,314.94,305.39,316.22z
						 M302.95,387.06h-14.3v-55.71h14.3V387.06z"/>
				</g>
				<g>
					
						<radialGradient id="SVGID_00000098181582509261476310000006319495103997792909_" cx="348.703" cy="359.6003" r="30.4983" gradientUnits="userSpaceOnUse">
						<stop  offset="0" style="stop-color:#B3B1BA"/>
						<stop  offset="1" style="stop-color:#FFFFFF"/>
					</radialGradient>
					<path style="fill:url(#SVGID_00000098181582509261476310000006319495103997792909_);" d="M381.96,332.14l-31.84,38.58
						c-8.54,10.35-21.26,16.34-34.68,16.34l0,0l40.88-47.73c3.91-4.57,9.63-7.2,15.64-7.2H381.96z"/>
					
						<radialGradient id="SVGID_00000054261105823306507650000001825784061888172162_" cx="347.7764" cy="359.6003" r="30.4983" gradientUnits="userSpaceOnUse">
						<stop  offset="0" style="stop-color:#FFFFFF"/>
						<stop  offset="1" style="stop-color:#B3B1BA"/>
					</radialGradient>
					<path style="fill:url(#SVGID_00000054261105823306507650000001825784061888172162_);" d="M314.52,332.14l31.84,38.58
						c8.54,10.35,21.26,16.34,34.68,16.34l0,0l-40.88-47.73c-3.91-4.57-9.63-7.2-15.64-7.2H314.52z"/>
				</g>
			</g>
		</g>
	</g>
</g>
</svg>
